<svg xmlns="http://www.w3.org/2000/svg" width="1428.114" height="223.128" viewBox="0 0 1428.114 223.128"><defs><style>.a{opacity:0.52;}.b{fill:#d2e9f7;}.c{fill:#5fb0e5;}.d{fill:#fff;}.e{fill:#0686d8;}.f{fill:#9ecfef;}.g{fill:#fffffe;}.h{opacity:0.3;}.i{fill:#03436c;}</style></defs><g transform="translate(-250 -579.173)"><g class="a" transform="translate(987.526 500.111)"><g transform="translate(48.117 79.062)"><g transform="translate(0 29.344)"><path class="b" d="M106.2,115.069h0A16.535,16.535,0,0,0,122.731,131.6h80.524a13.666,13.666,0,0,1,13.666,13.666h0a13.666,13.666,0,0,1-13.666,13.666H63.548a21.032,21.032,0,0,0-21.031,21.033h0A21.031,21.031,0,0,0,63.548,201H130.4a16.659,16.659,0,0,1,16.659,16.659h0A16.659,16.659,0,0,1,130.4,234.317H125.76a28.8,28.8,0,0,0-28.8,28.8h0a28.8,28.8,0,0,0,28.8,28.8h352.3a19,19,0,0,0,19-19h0a19,19,0,0,0-19-19H467.9a14.56,14.56,0,0,1-14.56-14.561h0a14.56,14.56,0,0,1,14.56-14.561h79.333a20.19,20.19,0,0,0,20.19-20.192h0a20.19,20.19,0,0,0-20.19-20.19H487.848a17.965,17.965,0,0,1-17.964-17.964h0a17.965,17.965,0,0,1,17.964-17.964H615.479a24.974,24.974,0,0,0,24.975-24.974h0a24.974,24.974,0,0,0-24.975-24.975H122.731A16.535,16.535,0,0,0,106.2,115.069Z" transform="translate(-42.517 -98.533)"/></g><g transform="translate(474.327 44.683)"><path class="c" d="M360.72,110.444a1.734,1.734,0,1,1-1.733-1.733A1.733,1.733,0,0,1,360.72,110.444Z" transform="translate(-357.252 -108.711)"/></g><g transform="translate(114.76 52.142)"><path class="c" d="M121.69,115.172a1.512,1.512,0,1,1-1.513-1.512A1.514,1.514,0,0,1,121.69,115.172Z" transform="translate(-118.665 -113.66)"/></g><g transform="translate(39.707 23.62)"><path class="c" d="M71.889,96.248a1.512,1.512,0,1,1-1.512-1.513A1.511,1.511,0,0,1,71.889,96.248Z" transform="translate(-68.864 -94.735)"/></g><g transform="translate(311.122 75.284)"><path class="c" d="M251.984,130.528a1.512,1.512,0,1,1-1.513-1.512A1.512,1.512,0,0,1,251.984,130.528Z" transform="translate(-248.959 -129.016)"/></g><g transform="translate(461.034 102.148)"><circle class="c" cx="1.442" cy="1.442" r="1.442"/></g><g transform="translate(309.017)"><path class="c" d="M251.773,81.167a2.105,2.105,0,1,1-2.105-2.105A2.1,2.1,0,0,1,251.773,81.167Z" transform="translate(-247.562 -79.062)"/></g><g transform="translate(339.686 46.416)"><path class="c" d="M272.123,111.966a2.105,2.105,0,1,1-2.105-2.105A2.1,2.1,0,0,1,272.123,111.966Z" transform="translate(-267.912 -109.861)"/></g><g transform="translate(491.898 90.953)"><path class="c" d="M373.122,141.52a2.105,2.105,0,1,1-2.105-2.107A2.106,2.106,0,0,1,373.122,141.52Z" transform="translate(-368.911 -139.413)"/></g><g transform="translate(184.281 8.928)"><path class="c" d="M169.826,87.5a2.515,2.515,0,1,1-2.515-2.515A2.516,2.516,0,0,1,169.826,87.5Z" transform="translate(-164.795 -84.986)"/></g><g transform="translate(479.828 2.105)"><path class="c" d="M368.727,84.373c-2.642.7-3.212,1.269-3.912,3.911-.7-2.642-1.269-3.21-3.912-3.911,2.643-.7,3.211-1.27,3.912-3.914C365.515,83.1,366.085,83.671,368.727,84.373Z" transform="translate(-360.902 -80.459)"/></g><g transform="translate(43.795 68.939)"><path class="c" d="M79.4,128.718c-2.642.7-3.21,1.269-3.912,3.912-.7-2.643-1.269-3.212-3.912-3.912,2.643-.7,3.212-1.27,3.912-3.912C76.192,127.448,76.76,128.016,79.4,128.718Z" transform="translate(-71.577 -124.806)"/></g><g transform="translate(233.089 48.522)"><path class="c" d="M204.421,114.878c-2.446.648-2.972,1.174-3.62,3.62-.65-2.446-1.174-2.972-3.62-3.62,2.446-.648,2.97-1.174,3.62-3.62C201.449,113.7,201.975,114.23,204.421,114.878Z" transform="translate(-197.181 -111.258)"/></g><g transform="translate(16.08 169.388)"><path class="c" d="M63.62,196.674c-3.525.934-4.282,1.692-5.217,5.216-.934-3.523-1.692-4.282-5.216-5.216,3.524-.934,4.282-1.692,5.216-5.216C59.339,194.982,60.1,195.74,63.62,196.674Z" transform="translate(-53.187 -191.458)"/></g><g transform="translate(198.228 102.803)"><path class="c" d="M180.388,150.447c-2.142.567-2.6,1.028-3.169,3.169-.568-2.142-1.029-2.6-3.169-3.169,2.14-.57,2.6-1.029,3.169-3.171C177.787,149.418,178.246,149.877,180.388,150.447Z" transform="translate(-174.049 -147.276)"/></g><g transform="translate(179.864 65.768)"><path class="c" d="M168.2,125.873c-2.142.568-2.6,1.028-3.169,3.169-.568-2.142-1.029-2.6-3.169-3.169,2.14-.568,2.6-1.029,3.169-3.171C165.6,124.844,166.061,125.3,168.2,125.873Z" transform="translate(-161.864 -122.702)"/></g><g transform="translate(375.316 69.681)"><path class="c" d="M297.894,128.469c-2.141.568-2.6,1.028-3.171,3.169-.568-2.142-1.028-2.6-3.169-3.169,2.142-.568,2.6-1.029,3.169-3.171C295.292,127.44,295.753,127.9,297.894,128.469Z" transform="translate(-291.554 -125.298)"/></g><g transform="translate(572.984 168.264)"><path class="c" d="M429.055,193.883c-2.142.568-2.6,1.028-3.171,3.169-.567-2.142-1.028-2.6-3.169-3.169,2.142-.568,2.6-1.029,3.169-3.171C426.454,192.854,426.914,193.315,429.055,193.883Z" transform="translate(-422.715 -190.712)"/></g><g transform="translate(545.149 88.34)"><path class="c" d="M416.181,143.647c-4.031,1.07-4.9,1.937-5.968,5.968-1.07-4.031-1.937-4.9-5.968-5.968,4.031-1.07,4.9-1.937,5.968-5.968C411.283,141.71,412.15,142.577,416.181,143.647Z" transform="translate(-404.245 -137.679)"/></g><g transform="translate(533.833 115.515)"><rect class="b" width="77.618" height="38.019" rx="12.613"/></g></g><g transform="translate(31.474 156.461)"><g transform="translate(30.68 123.941)"><g transform="translate(1.125 1.126)"><path class="d" d="M56.857,215.094a9.766,9.766,0,1,0,13.565,2.591A9.766,9.766,0,0,0,56.857,215.094Z" transform="translate(-52.578 -213.405)"/></g><path class="e" d="M62.739,234.442a10.892,10.892,0,0,1-6.138-19.9v0a10.9,10.9,0,1,1,6.138,19.905ZM57.87,216.407a8.636,8.636,0,1,0,12,2.291,8.647,8.647,0,0,0-12-2.291Z" transform="translate(-51.831 -212.659)"/></g><g transform="translate(545.886 92.475)"><g transform="translate(17.3)"><g transform="translate(1.13 1.382)"><path class="d" d="M412.5,243.439h-6.134a.448.448,0,0,1-.449-.448V198.13a.45.45,0,0,1,.041-.188l3.068-4.984a.448.448,0,0,1,.814,0l3.067,4.984a.454.454,0,0,1,.042.188v44.861A.449.449,0,0,1,412.5,243.439Z" transform="translate(-405.92 -192.697)"/></g><g transform="translate(1.131 8.326)"><rect class="c" width="7.031" height="39.265"/></g><path class="e" d="M414.463,245.034H405.17V198.182l3.435-5.7a1.351,1.351,0,0,1,1.212-.7,1.4,1.4,0,0,1,1.269.811l3.377,5.591Zm-7.032-2.261H412.2V198.811l-2.389-3.964-2.383,3.964Z" transform="translate(-405.17 -191.78)"/><g transform="translate(0.986 7.196)"><rect class="e" width="7.176" height="2.261"/></g><g transform="translate(0.818 46.46)"><rect class="e" width="7.656" height="2.261"/></g></g><g transform="translate(0 6.643)"><g transform="translate(26.869 0.081)"><path class="e" d="M412.066,238.886l-.546-2.194a19.818,19.818,0,0,0,.656-38.276l.621-2.173a22.078,22.078,0,0,1-.731,42.644Z" transform="translate(-411.52 -196.242)"/></g><path class="e" d="M410.165,238.849a22.078,22.078,0,0,1-.185-42.661l.592,2.182a19.817,19.817,0,0,0,.164,38.29Z" transform="translate(-393.691 -196.188)"/><g transform="translate(28.378 1.103)"><path class="e" d="M414.438,237.361l-1.917-1.2a38.845,38.845,0,0,0,.09-38.055l1.922-1.188a41.083,41.083,0,0,1-.095,40.441Z" transform="translate(-412.521 -196.92)"/></g><g transform="translate(9.011 1.103)"><path class="e" d="M405.043,237.362a41.051,41.051,0,0,1-.093-40.442l1.922,1.188a38.809,38.809,0,0,0,.089,38.055Z" transform="translate(-399.67 -196.92)"/></g><g transform="translate(27.831 20.173)"><rect class="e" width="15.181" height="2.261"/></g><g transform="translate(28.998 10.225)"><rect class="e" width="12.049" height="2.261"/></g><g transform="translate(1.131 20.173)"><rect class="e" width="15.268" height="2.261"/></g><g transform="translate(2.925 10.225)"><rect class="e" width="12.566" height="2.261"/></g><g transform="translate(28.742 30.124)"><rect class="e" width="11.16" height="2.261"/></g><g transform="translate(4.21 30.124)"><rect class="e" width="11.147" height="2.261"/></g></g></g><g transform="translate(99.844 0)"><g transform="translate(1.13 1.131)"><path class="d" d="M3.026,0h73.6a3.026,3.026,0,0,1,3.026,3.026V142.469a0,0,0,0,1,0,0H0a0,0,0,0,1,0,0V3.026A3.026,3.026,0,0,1,3.026,0Z"/></g><g transform="translate(1.13 1.13)"><path class="c" d="M178.127,146.547H98.474V135.916a4.748,4.748,0,0,1,4.747-4.747H173.38a4.748,4.748,0,0,1,4.747,4.747Z" transform="translate(-98.474 -131.169)"/></g><path class="e" d="M99.985,204.519H97.724V136.3a5.885,5.885,0,0,1,5.878-5.878H173.76a5.884,5.884,0,0,1,5.878,5.878V192.43h-2.261V136.3a3.622,3.622,0,0,0-3.617-3.617H103.6a3.622,3.622,0,0,0-3.617,3.617Z" transform="translate(-97.724 -130.419)"/><g transform="translate(0 94.822)"><rect class="e" width="2.261" height="48.778"/></g><g transform="translate(1.713 15.779)"><rect class="e" width="79.071" height="2.261"/></g><g transform="translate(13.043 62.318)"><rect class="b" width="55.374" height="11.82"/></g><g transform="translate(13.043 82.216)"><rect class="b" width="55.374" height="11.82"/></g><g transform="translate(9.084 6.121)"><rect class="e" width="2.414" height="2.261"/></g><g transform="translate(20.864 67.098)"><rect class="e" width="36.196" height="2.261"/></g><g transform="translate(19.719 86.995)"><rect class="e" width="1.833" height="2.261"/></g><g transform="translate(25.479 86.995)"><rect class="e" width="1.832" height="2.261"/></g><g transform="translate(31.239 86.995)"><rect class="e" width="1.833" height="2.261"/></g><g transform="translate(36.998 86.995)"><rect class="e" width="1.833" height="2.261"/></g><g transform="translate(42.759 86.995)"><rect class="e" width="1.832" height="2.261"/></g><g transform="translate(48.519 86.995)"><rect class="e" width="1.833" height="2.261"/></g><g transform="translate(54.279 86.995)"><rect class="e" width="1.832" height="2.261"/></g><g transform="translate(14.947 6.121)"><rect class="e" width="2.414" height="2.261"/></g><g transform="translate(20.811 6.121)"><rect class="e" width="2.414" height="2.261"/></g><g transform="translate(32.902 27.444)"><g transform="translate(2.246)"><path class="e" d="M126.3,159.145a5.258,5.258,0,1,1,5.26-5.258A5.263,5.263,0,0,1,126.3,159.145Zm0-8.256a3,3,0,1,0,3,3A3,3,0,0,0,126.3,150.89Z" transform="translate(-121.046 -148.629)"/></g><g transform="translate(0 11.421)"><path class="e" d="M135.211,167.884h-2.261v-3.849a5.567,5.567,0,1,0-11.134,0v3.849h-2.261v-3.849a7.828,7.828,0,1,1,15.655,0Z" transform="translate(-119.556 -156.207)"/></g></g><g transform="translate(24.231 23.06)"><path class="e" d="M130.3,178.717a16.5,16.5,0,1,1,16.5-16.5A16.517,16.517,0,0,1,130.3,178.717Zm0-30.737a14.238,14.238,0,1,0,14.239,14.237A14.254,14.254,0,0,0,130.3,147.981Z" transform="translate(-113.802 -145.72)"/></g></g><g transform="translate(50.259 72.968)"><g transform="translate(12.395 53.572)"><rect class="d" width="30.21" height="18.059"/></g><g transform="translate(11.264 52.442)"><path class="e" d="M104.767,232.823h-2.261V215.894H74.557v16.929H72.3V213.633h32.47Z" transform="translate(-72.297 -213.633)"/></g><g transform="translate(0 4.506)"><path class="e" d="M78.651,199.032c-15.782-3.787-13.754-16.151-13.732-16.275l.167-.931H75.817v2.261H67.063c-.086,2.628.734,10.016,12.115,12.747Z" transform="translate(-64.823 -181.826)"/></g><g transform="translate(41.546 4.506)"><path class="e" d="M92.916,199.032l-.526-2.2c11.443-2.746,12.224-10.121,12.123-12.747H95.751v-2.261h10.732l.167.931C106.671,182.881,108.7,195.245,92.916,199.032Z" transform="translate(-92.39 -181.826)"/></g><g transform="translate(10.823 1.132)"><path class="b" d="M106.219,186.617a22.53,22.53,0,0,0-1.129-7.03H73.133A22.529,22.529,0,0,0,72,186.617c0,10.179,6.624,20.365,15.148,21.749v13.616h3.92V208.366C99.6,206.982,106.219,196.8,106.219,186.617Z" transform="translate(-72.004 -179.587)"/></g><g transform="translate(13.388 1.132)"><path class="d" d="M87.226,208.355c-7.914-2.12-9.675-12.063-9.675-21.738a22.529,22.529,0,0,1,1.129-7.03H74.833a22.529,22.529,0,0,0-1.127,7.03c0,10.179,4.059,20.365,12.583,21.749A2.5,2.5,0,0,0,87.226,208.355Z" transform="translate(-73.706 -179.587)"/></g><g transform="translate(20.147 0.001)"><rect class="e" width="3.131" height="2.261"/></g><g transform="translate(9.692)"><path class="e" d="M92.582,223.493H86.4v-13.82C77.966,207.686,71.254,197.765,71.254,187a23.682,23.682,0,0,1,1.185-7.383l.255-.779h6.12V181.1H74.348a21.375,21.375,0,0,0-.833,5.9c0,9.936,6.5,19.384,14.2,20.633l.949.154v13.448h1.659V207.785l.949-.154c7.7-1.249,14.2-10.7,14.2-20.633a21.358,21.358,0,0,0-.833-5.9H86.814v-2.261H106.29l.253.778A23.648,23.648,0,0,1,107.73,187c0,10.767-6.711,20.688-15.148,22.675Z" transform="translate(-71.254 -178.836)"/></g><g transform="translate(23.999 33.068)"><rect class="e" width="8.07" height="2.261"/></g><g transform="translate(23.999 36.067)"><rect class="e" width="8.07" height="2.261"/></g><g transform="translate(17.858 42.042)"><path class="f" d="M1.089,0h17.8a1.088,1.088,0,0,1,1.088,1.088V8.881a0,0,0,0,1,0,0H0a0,0,0,0,1,0,0V1.089A1.089,1.089,0,0,1,1.089,0Z"/></g><g transform="translate(16.727 40.912)"><path class="e" d="M98.156,217.125H75.922v-8.372a2.774,2.774,0,0,1,2.77-2.77H95.384a2.774,2.774,0,0,1,2.772,2.77Zm-19.973-2.261H95.9v-6.111a.511.511,0,0,0-.511-.509H78.692a.511.511,0,0,0-.509.509Z" transform="translate(-75.922 -205.983)"/></g><g transform="translate(22.486 43.562)"><rect class="d" width="10.717" height="4.275"/></g><g transform="translate(25.253 44.57)"><rect class="e" width="5.038" height="2.261"/></g><g transform="translate(14.092 49.794)"><rect class="e" width="27.119" height="2.261"/></g><g transform="translate(4.302 52.442)"><rect class="e" width="46.814" height="2.261"/></g><g transform="translate(8.077 55.04)"><path class="f" d="M78.816,219.673a4.317,4.317,0,1,1-4.316-4.316A4.317,4.317,0,0,1,78.816,219.673Z" transform="translate(-70.182 -215.357)"/></g><g transform="translate(38.287 55.04)"><path class="f" d="M98.862,219.673a4.317,4.317,0,1,1-4.318-4.316A4.318,4.318,0,0,1,98.862,219.673Z" transform="translate(-90.228 -215.357)"/></g><g transform="translate(6.948 53.909)"><path class="e" d="M74.88,225.5a5.447,5.447,0,1,1,5.448-5.447A5.452,5.452,0,0,1,74.88,225.5Zm0-8.633a3.186,3.186,0,1,0,3.187,3.186A3.189,3.189,0,0,0,74.88,216.868Z" transform="translate(-69.433 -214.607)"/></g><g transform="translate(37.157 53.909)"><path class="e" d="M94.925,225.5a5.447,5.447,0,1,1,5.448-5.447A5.453,5.453,0,0,1,94.925,225.5Zm0-8.633a3.186,3.186,0,1,0,3.187,3.186A3.189,3.189,0,0,0,94.925,216.868Z" transform="translate(-89.478 -214.607)"/></g><g transform="translate(11.408 58.226)"><rect class="e" width="1.974" height="2.261"/></g><g transform="translate(41.617 58.226)"><rect class="e" width="1.974" height="2.261"/></g><g transform="translate(20.976 60.696)"><rect class="e" width="2.261" height="10.936"/></g><g transform="translate(26.369 60.696)"><rect class="e" width="2.261" height="10.936"/></g><g transform="translate(31.762 60.696)"><rect class="e" width="2.261" height="10.936"/></g></g><g transform="translate(425.23 45.348)"><g transform="translate(17.379 11.778)"><rect class="b" width="23.25" height="76.733" rx="1.355"/></g><g transform="translate(47.387 1.13)"><rect class="c" width="13.004" height="87.381" rx="1.355"/></g><g transform="translate(51.908 18.566)"><rect class="g" width="4.521" height="55.215"/></g><g transform="translate(67.274 9.056)"><rect class="b" width="20.137" height="79.455" rx="1.355"/></g><g transform="translate(16.248 10.647)"><path class="e" d="M349.924,206.021h-2.261V172.849a3.018,3.018,0,0,0-3.014-3.014H329.687a3.018,3.018,0,0,0-3.014,3.014v6.206h-2.261v-6.206a5.281,5.281,0,0,1,5.275-5.275h14.962a5.281,5.281,0,0,1,5.275,5.275Z" transform="translate(-324.412 -167.574)"/></g><g transform="translate(46.256)"><path class="e" d="M359.589,206.889h-2.261V166.111a3.345,3.345,0,0,0-3.343-3.341H349.6a3.018,3.018,0,0,0-3.014,3.013v41.107h-2.261V165.782a5.28,5.28,0,0,1,5.275-5.273h4.387a5.609,5.609,0,0,1,5.6,5.6Z" transform="translate(-344.324 -160.509)"/></g><g transform="translate(66.142 7.926)"><path class="e" d="M359.78,206.937h-2.261V171.043a5.281,5.281,0,0,1,5.275-5.275h11.85a5.281,5.281,0,0,1,5.275,5.275v21.286h-2.261V171.043a3.018,3.018,0,0,0-3.014-3.014h-11.85a3.018,3.018,0,0,0-3.014,3.014Z" transform="translate(-357.519 -165.768)"/></g><g transform="translate(23.059 19.814)"><rect class="e" width="11.889" height="2.261"/></g><g transform="translate(23.059 29.324)"><rect class="e" width="11.889" height="2.261"/></g><g transform="translate(23.059 38.835)"><rect class="e" width="11.889" height="2.261"/></g><g transform="translate(23.059 48.346)"><rect class="e" width="11.889" height="2.261"/></g><g transform="translate(23.059 57.856)"><rect class="e" width="6.462" height="2.261"/></g><g transform="translate(23.059 67.367)"><rect class="e" width="11.889" height="2.261"/></g><g transform="translate(23.059 76.878)"><rect class="e" width="11.889" height="2.261"/></g><g transform="translate(70.208 16.189)"><path class="c" d="M374.484,178.384a7.134,7.134,0,1,1-7.134-7.133A7.134,7.134,0,0,1,374.484,178.384Z" transform="translate(-360.217 -171.251)"/></g><g transform="translate(70.208 63.743)"><path class="c" d="M374.484,209.936a7.134,7.134,0,1,1-7.134-7.131A7.133,7.133,0,0,1,374.484,209.936Z" transform="translate(-360.217 -202.805)"/></g><g transform="translate(0 49.375)"><g transform="translate(1.13 1.13)"><path class="b" d="M409.688,220.437h-.422a15.319,15.319,0,0,0-23-8.629,20.988,20.988,0,0,0-40.786-3.022A14.355,14.355,0,0,0,327.5,220.437h-2.349a10.8,10.8,0,0,0-10.77,10.768V232a10.8,10.8,0,0,0,10.77,10.768h84.537A10.8,10.8,0,0,0,420.456,232V231.2A10.8,10.8,0,0,0,409.688,220.437Z" transform="translate(-314.381 -194.021)"/></g><g transform="translate(2.515 6.905)"><path class="d" d="M399.316,221.139h-.371a13.5,13.5,0,0,0-20.279-7.608,18.5,18.5,0,0,0-35.956-2.663,12.654,12.654,0,0,0-15.847,10.271h-2.071a9.52,9.52,0,0,0-9.493,9.493v.7a9.52,9.52,0,0,0,9.493,9.493h74.523a9.521,9.521,0,0,0,9.495-9.493v-.7A9.521,9.521,0,0,0,399.316,221.139Z" transform="translate(-315.3 -197.853)"/></g><g transform="translate(41.8 8.108)"><path class="e" d="M364.579,208.373a16.364,16.364,0,0,0-22.06-5.183l-1.151-1.946a18.624,18.624,0,0,1,25.108,5.9Z" transform="translate(-341.367 -198.651)"/></g><g transform="translate(28.747 14.194)"><path class="e" d="M341.311,211.294h-2.261a6.353,6.353,0,0,0-6.345-6.345v-2.261A8.616,8.616,0,0,1,341.311,211.294Z" transform="translate(-332.706 -202.689)"/></g><path class="e" d="M410.068,244.278H325.531a11.913,11.913,0,0,1-11.9-11.9v-.794a11.912,11.912,0,0,1,11.9-11.9v2.261a9.648,9.648,0,0,0-9.639,9.638v.794a9.649,9.649,0,0,0,9.639,9.638h84.537a9.65,9.65,0,0,0,9.639-9.638v-.794a9.649,9.649,0,0,0-9.639-9.638H408.8l-.237-.815a14.188,14.188,0,0,0-21.307-7.994l-1.462.939-.265-1.72a19.858,19.858,0,0,0-38.59-2.857l-.321,1.04-1.05-.283a13.317,13.317,0,0,0-3.454-.47v-2.261a15.284,15.284,0,0,1,3,.3,22.12,22.12,0,0,1,42.341,2.586,16.453,16.453,0,0,1,23.02,9.276,11.915,11.915,0,0,1,11.493,11.892v.794A11.913,11.913,0,0,1,410.068,244.278Z" transform="translate(-313.631 -193.271)"/></g></g><g transform="translate(257.212 14.53)"><g transform="translate(1.131 1.131)"><path class="c" d="M4.818,0H143.963a4.818,4.818,0,0,1,4.818,4.818V88.5a0,0,0,0,1,0,0H0a0,0,0,0,1,0,0V4.818A4.818,4.818,0,0,1,4.818,0Z"/></g><path class="e" d="M204.4,189h-2.261V148.634a8.584,8.584,0,0,1,8.574-8.574h23.836v2.261H210.718a6.321,6.321,0,0,0-6.313,6.313Z" transform="translate(-202.144 -140.06)"/><g transform="translate(65.371)"><path class="e" d="M331.191,193.193H328.93V148.634a6.321,6.321,0,0,0-6.312-6.313h-77.1V140.06h77.1a8.584,8.584,0,0,1,8.572,8.574Z" transform="translate(-245.52 -140.06)"/></g><g transform="translate(39.001 0.001)"><rect class="e" width="16.42" height="2.261"/></g><g transform="translate(9.204 9.784)"><rect class="d" width="132.801" height="69.897"/></g><g transform="translate(53.109 103.038)"><rect class="b" width="44.825" height="26.535"/></g><g transform="translate(53.109 103.038)"><rect class="f" width="44.825" height="13.268"/></g><g transform="translate(51.979 101.908)"><path class="e" d="M283.719,236.476H236.634v-28.8h47.085Zm-44.825-2.261h42.564V209.941H238.895Z" transform="translate(-236.634 -207.68)"/></g><g transform="translate(1.131 86.377)"><path class="d" d="M0,0H148.781a0,0,0,0,1,0,0V14.212a5.88,5.88,0,0,1-5.88,5.88H5.88A5.88,5.88,0,0,1,0,14.212V0A0,0,0,0,1,0,0Z"/></g><g transform="translate(25.063 105.339)"><rect class="e" width="106.944" height="2.261"/></g><g transform="translate(25.244 85.247)"><rect class="e" width="105.075" height="2.261"/></g><g transform="translate(44.394 128.939)"><rect class="e" width="62.84" height="2.261"/></g><g transform="translate(18.612 20.266)"><rect class="b" width="57.202" height="34.756" rx="1.075"/></g><g transform="translate(17.482 19.135)"><path class="e" d="M270.456,189.774H216.493a2.752,2.752,0,0,1-2.749-2.749V155.509a2.753,2.753,0,0,1,2.749-2.752h53.964a2.753,2.753,0,0,1,2.749,2.75v31.517A2.752,2.752,0,0,1,270.456,189.774Zm-53.964-34.756a.49.49,0,0,0-.488.491v31.516a.488.488,0,0,0,.488.488h53.964a.488.488,0,0,0,.488-.488V155.507a.489.489,0,0,0-.488-.49Z" transform="translate(-213.744 -152.757)"/></g><g transform="translate(39.001 28.363)"><path class="c" d="M243.793,169.291l-13.812,7.975a1.306,1.306,0,0,1-1.958-1.13V160.187a1.306,1.306,0,0,1,1.958-1.13l13.812,7.974A1.306,1.306,0,0,1,243.793,169.291Z" transform="translate(-228.023 -158.88)"/></g><g transform="translate(37.871 27.231)"><path class="e" d="M229.708,178.955a2.444,2.444,0,0,1-2.435-2.438V160.567a2.435,2.435,0,0,1,3.653-2.108l13.812,7.974a2.437,2.437,0,0,1,0,4.218l-13.812,7.974A2.433,2.433,0,0,1,229.708,178.955Zm0-18.564a.184.184,0,0,0-.089.024.164.164,0,0,0-.087.152v15.949a.175.175,0,0,0,.262.151l13.812-7.974a.176.176,0,0,0,0-.3L229.8,160.415A.19.19,0,0,0,229.71,160.391Z" transform="translate(-227.273 -158.129)"/></g><g transform="translate(18.612 63.407)"><rect class="e" width="27.592" height="2.261"/></g><g transform="translate(110.809 24.466)"><rect class="e" width="27.591" height="2.261"/></g><g transform="translate(110.809 32.976)"><rect class="e" width="13.796" height="2.261"/></g><g transform="translate(110.809 49.637)"><rect class="e" width="27.591" height="2.261"/></g><g transform="translate(110.809 58.147)"><rect class="e" width="13.796" height="2.261"/></g><g transform="translate(110.809 74.808)"><rect class="e" width="27.591" height="2.261"/></g><g transform="translate(16.802 70.9)"><rect class="e" width="61.355" height="2.261"/></g><g transform="translate(88.634 20.433)"><rect class="c" width="18.6" height="18.6"/></g><g transform="translate(88.634 45.722)"><rect class="c" width="18.6" height="18.6"/></g><g transform="translate(88.634 71.011)"><rect class="c" width="18.6" height="9.3"/></g></g><g class="h" transform="translate(387.726 66.801)"><path class="i" d="M309.274,220.081V175.874h-1.656v-1.13h-6.312v1.13h-4.4v-1.13h-3.49a4.673,4.673,0,0,0-4.669,4.667v50.662h10.536A10,10,0,0,0,309.274,220.081Z" transform="translate(-288.745 -174.744)"/></g><g class="h" transform="translate(425.23 69.815)"><path class="i" d="M341.441,247.991V181.411a4.673,4.673,0,0,0-4.669-4.667h-6.893V218.11h1.13v2.452a15.481,15.481,0,0,0-4.065,7.505h-1.414a11.912,11.912,0,0,0-11.9,11.9v.794a11.913,11.913,0,0,0,11.9,11.9h11.241A4.673,4.673,0,0,0,341.441,247.991Z" transform="translate(-313.631 -176.744)"/></g><g transform="translate(390.74 69.814)"><g transform="translate(1.131 1.13)"><path class="d" d="M1.778,0H55.247a1.778,1.778,0,0,1,1.778,1.778v70.1a1.778,1.778,0,0,1-1.778,1.778H1.779A1.779,1.779,0,0,1,0,71.876V1.778A1.778,1.778,0,0,1,1.778,0Z"/></g><g transform="translate(0 0)"><path class="e" d="M345.363,252.658H295.414a4.673,4.673,0,0,1-4.669-4.667V181.411a4.673,4.673,0,0,1,4.669-4.667h3.49V179h-3.49a2.41,2.41,0,0,0-2.408,2.407v66.579a2.411,2.411,0,0,0,2.408,2.407h49.949a2.411,2.411,0,0,0,2.408-2.407V181.411A2.41,2.41,0,0,0,345.363,179H313.137v-2.261h32.226a4.673,4.673,0,0,1,4.669,4.667v66.579A4.673,4.673,0,0,1,345.363,252.658Z" transform="translate(-290.745 -176.744)"/></g><g transform="translate(12.562)"><rect class="e" width="6.311" height="2.261"/></g><g transform="translate(6.495 8.641)"><rect class="b" width="46.298" height="59.145"/></g><g transform="translate(23.151 3.91)"><rect class="e" width="12.985" height="2.261"/></g><g transform="translate(40.297 1.13)"><path class="c" d="M328.931,219.856l-5.724-1.989-5.723,1.989V177.494h11.447Z" transform="translate(-317.484 -177.494)"/></g><g transform="translate(39.166 0)"><path class="e" d="M330.441,221.826l-6.854-2.383-6.854,2.383V176.744h13.708Zm-6.854-4.776,4.594,1.6V179h-9.187v39.642Z" transform="translate(-316.733 -176.744)"/></g><g transform="translate(9.918 13.598)"><rect class="e" width="27.003" height="2.261"/></g><g transform="translate(9.918 20.496)"><rect class="e" width="27.003" height="2.261"/></g><g transform="translate(9.918 27.393)"><rect class="e" width="27.003" height="2.261"/></g><g transform="translate(9.918 34.291)"><rect class="e" width="27.003" height="2.261"/></g><g transform="translate(9.918 41.188)"><rect class="e" width="27.003" height="2.261"/></g><g transform="translate(9.918 48.086)"><rect class="e" width="39.184" height="2.261"/></g><g transform="translate(9.918 54.983)"><rect class="e" width="39.184" height="2.261"/></g><g transform="translate(9.918 61.881)"><rect class="e" width="39.184" height="2.261"/></g><g transform="translate(27.369 69.624)"><rect class="e" width="4.549" height="2.261"/></g></g><g transform="translate(0 143.469)"><rect class="e" width="659.114" height="2.261"/></g><g class="h" transform="translate(257.212 61.918)"><path class="i" d="M222.9,171.5H202.144v50.22a10,10,0,0,0,9.992,9.992h14.469V175.207A3.707,3.707,0,0,0,222.9,171.5Z" transform="translate(-202.144 -171.504)"/></g><g class="h" transform="translate(164.728 64.932)"><path class="i" d="M156.677,173.5h-7.058a3.706,3.706,0,0,0-3.7,3.7V243.5h-5.141l.936,5.7a6.078,6.078,0,0,0,1.38,2.97h13.583Z" transform="translate(-140.777 -173.504)"/></g><g transform="translate(167.742 50.565)"><g transform="translate(0 14.367)"><g transform="translate(6.271 1.131)"><rect class="c" width="103.516" height="74.405" rx="1"/></g><g transform="translate(5.141)"><path class="e" d="M148.449,199.748h-2.261V177.207a3.706,3.706,0,0,1,3.7-3.7h17.535v2.261H149.889a1.444,1.444,0,0,0-1.441,1.442Z" transform="translate(-146.188 -173.504)"/></g><g transform="translate(85.995)"><path class="e" d="M221.058,250.17v-2.261a1.443,1.443,0,0,0,1.442-1.442v-69.26a1.444,1.444,0,0,0-1.442-1.442H199.838V173.5h21.219a3.707,3.707,0,0,1,3.7,3.7v69.26A3.707,3.707,0,0,1,221.058,250.17Z" transform="translate(-199.838 -173.504)"/></g><g transform="translate(11.298 6.985)"><rect class="d" width="92.9" height="60.379"/></g><g transform="translate(1.332 71.126)"><path class="d" d="M250.306,229.24H149.267a4.952,4.952,0,0,1-4.887-4.15l-.719-4.39H190.49l1.792,2.573h12.94l1.938-2.573h49.332l-.625,3.819A5.633,5.633,0,0,1,250.306,229.24Z" transform="translate(-143.661 -220.699)"/></g><g transform="translate(0 69.997)"><path class="e" d="M250.754,230.75H149.716a6.061,6.061,0,0,1-6-5.1l-.936-5.7h48.752l1.792,2.571h11.785l1.937-2.571h51.228l-.841,5.132A6.74,6.74,0,0,1,250.754,230.75ZM145.44,222.211l.5,3.076a3.806,3.806,0,0,0,3.771,3.2H250.754a4.485,4.485,0,0,0,4.444-3.775l.411-2.5H208.17l-1.937,2.571H192.141l-1.792-2.571Z" transform="translate(-142.777 -219.95)"/></g></g><g transform="translate(67.789)"><rect class="e" width="4.844" height="2.261"/></g><g transform="translate(26.859 50.415)"><g transform="translate(2.247)"><path class="e" d="M167.347,207.938a5.257,5.257,0,1,1,5.26-5.257A5.263,5.263,0,0,1,167.347,207.938Zm0-8.254a3,3,0,1,0,3,3A3,3,0,0,0,167.347,199.684Z" transform="translate(-162.09 -197.423)"/></g><g transform="translate(0 11.421)"><path class="e" d="M176.256,216.676H174v-3.849a5.568,5.568,0,0,0-11.136,0v3.849H160.6v-3.849a7.828,7.828,0,0,1,15.657,0Z" transform="translate(-160.599 -205.001)"/></g></g><g transform="translate(16.714 42.406)"><path class="e" d="M189.2,224.344h-35.33V192.109h11.276v2.261h-9.015v27.714h30.809V194.37h-8.4v-2.261H189.2Z" transform="translate(-153.867 -192.109)"/></g><g transform="translate(60.033 43.52)"><rect class="e" width="37.373" height="2.261"/></g><g transform="translate(60.412 54.542)"><rect class="e" width="37.373" height="2.261"/></g><g transform="translate(60.79 65.565)"><rect class="e" width="18.687" height="2.261"/></g></g><g class="h" transform="translate(167.742 92.465)"><path class="i" d="M160.077,240.831V199.973a3.754,3.754,0,0,0-3.75-3.75h-5.755v-4.45h-2.261v4.45h-.393v38.014h-5.141l.936,5.7a6.054,6.054,0,0,0,3.712,4.643h8.9A3.755,3.755,0,0,0,160.077,240.831Z" transform="translate(-142.777 -191.773)"/></g><g transform="translate(124.971 92.465)"><g transform="translate(1.131 5.579)"><rect class="d" width="54.795" height="46.099" rx="1.804"/></g><g transform="translate(1.13 5.579)"><path class="f" d="M167.323,195.475H117.768a2.622,2.622,0,0,0-2.621,2.621v6.993h54.8V198.1A2.62,2.62,0,0,0,167.323,195.475Z" transform="translate(-115.147 -195.475)"/></g><g transform="translate(8.781)"><rect class="e" width="2.261" height="8.802"/></g><g transform="translate(14.865)"><rect class="e" width="2.261" height="8.802"/></g><g transform="translate(20.95)"><rect class="e" width="2.261" height="8.802"/></g><g transform="translate(27.035)"><rect class="e" width="2.261" height="8.802"/></g><g transform="translate(33.12)"><rect class="e" width="2.261" height="8.802"/></g><g transform="translate(39.205)"><rect class="e" width="2.261" height="8.802"/></g><g transform="translate(45.29)"><rect class="e" width="2.261" height="8.802"/></g><g transform="translate(14.047 20.003)"><circle class="b" cx="14.118" cy="14.118" r="14.118"/></g><g transform="translate(19.648 25.603)"><path class="d" d="M144.47,217.28a8.518,8.518,0,1,1-8.518-8.518A8.518,8.518,0,0,1,144.47,217.28Z" transform="translate(-127.434 -208.762)"/></g><g transform="translate(17.476 43.383)"><path class="e" d="M130.555,225.265a15.229,15.229,0,0,1-4.562-3.092l1.585-1.613a12.969,12.969,0,0,0,3.885,2.636Z" transform="translate(-125.993 -220.56)"/></g><g transform="translate(12.917 18.872)"><path class="e" d="M138.217,234.793a15.294,15.294,0,0,1-3.7-.454l.549-2.193a12.99,12.99,0,1,0-9.834-12.6,12.878,12.878,0,0,0,2.633,7.841l-1.8,1.365a15.25,15.25,0,1,1,12.158,6.042Z" transform="translate(-122.968 -204.296)"/></g><g transform="translate(20.963 28.391)"><path class="e" d="M133.645,221.278l-5.338-5.338,1.6-1.6,3.74,3.74,7.469-7.469,1.6,1.6Z" transform="translate(-128.307 -210.612)"/></g><g transform="translate(1.292 14.062)"><rect class="e" width="54.634" height="2.261"/></g><g transform="translate(0 4.45)"><path class="e" d="M167.7,243.085H118.148a3.756,3.756,0,0,1-3.751-3.751V198.476a3.755,3.755,0,0,1,3.751-3.75H167.7a3.754,3.754,0,0,1,3.75,3.75v40.858A3.755,3.755,0,0,1,167.7,243.085Zm-49.555-46.1a1.492,1.492,0,0,0-1.49,1.489v40.858a1.493,1.493,0,0,0,1.49,1.491H167.7a1.492,1.492,0,0,0,1.489-1.491V198.476a1.49,1.49,0,0,0-1.489-1.489Z" transform="translate(-114.397 -194.726)"/></g></g><g transform="translate(419.76 0.357)"><g transform="translate(1.409 1.13)"><path class="f" d="M310.936,179.2l2.408-13.026a24.784,24.784,0,1,1,9.446,10.851Z" transform="translate(-310.936 -131.406)"/></g><path class="e" d="M336.364,182.326A25.755,25.755,0,0,1,323.04,178.6L310,180.992l2.642-14.3a25.6,25.6,0,0,1-2.113-10.2,25.882,25.882,0,0,1,5.759-16.263l1.754,1.426a23.624,23.624,0,0,0-5.252,14.837,23.369,23.369,0,0,0,2.059,9.6l.143.321-2.172,11.76,10.672-1.958.372.234a23.557,23.557,0,1,0,3.1-41.588l-.9-2.072a25.838,25.838,0,1,1,10.305,49.533Z" transform="translate(-310.001 -130.656)"/><g transform="translate(8.027 3.439)"><path class="e" d="M316.932,138.727l-1.6-1.593a25.979,25.979,0,0,1,5.447-4.2l1.13,1.959A23.611,23.611,0,0,0,316.932,138.727Z" transform="translate(-315.327 -132.938)"/></g><g transform="translate(7.166 7.206)"><ellipse class="d" cx="19.072" cy="18.63" rx="19.072" ry="18.63"/></g><g transform="translate(21.544 18.162)"><path class="e" d="M326.346,158.053A2.06,2.06,0,0,1,324.3,156V144.761a2.05,2.05,0,0,1,3.076-1.775l9.733,5.62a2.049,2.049,0,0,1,0,3.551l-9.733,5.618A2.049,2.049,0,0,1,326.346,158.053Zm.211-12.929v10.512l9.1-5.257Z" transform="translate(-324.296 -142.708)"/></g></g><g class="h" transform="translate(506.504 80.529)"><g transform="translate(0 1.585)"><path class="i" d="M383.13,223.935a16.574,16.574,0,0,0-9.433-9.871v-2.8h1.13V184.9a18.872,18.872,0,0,0-1.418,1.486l-.871-.735a21.177,21.177,0,0,0,5.08,31.667v4.363h-1.885v2.261h1.885v2.288h-1.885v2.261h1.885v2.288h-1.885v2.261h1.885v2.288h-1.885v2.261h2.334l2.844,5.389h3.56v1.361a2.64,2.64,0,0,0,2.637,2.637h1.453a11.976,11.976,0,0,0,4.175-3.953v-.045h.027a11.812,11.812,0,0,0,1.86-6.358v-.794A11.915,11.915,0,0,0,383.13,223.935Z" transform="translate(-367.559 -184.905)"/></g><g transform="translate(7.035)"><path class="i" d="M372.461,184.3v-.451c-.081.078-.146.133-.234.22Z" transform="translate(-372.227 -183.853)"/></g></g><g transform="translate(509.516 75.323)"><g transform="translate(18.044 58.538)"><rect class="c" width="6.004" height="9.195" rx="1"/></g><g transform="translate(16.914 57.409)"><path class="e" d="M386.408,229.947h-2.99a2.64,2.64,0,0,1-2.637-2.637v-6.18a2.64,2.64,0,0,1,2.637-2.637h2.99a2.641,2.641,0,0,1,2.637,2.637v6.18A2.641,2.641,0,0,1,386.408,229.947Zm-2.99-9.195a.381.381,0,0,0-.377.377v6.18a.381.381,0,0,0,.377.377h2.99a.382.382,0,0,0,.377-.377v-6.18a.382.382,0,0,0-.377-.377Z" transform="translate(-380.781 -218.492)"/></g><g transform="translate(1.13 1.13)"><path class="d" d="M410.431,201.211a20.061,20.061,0,1,0-30.061,17.373v19.78l2.844,5.389h13.781l3.376-5.389v-19.78A20.038,20.038,0,0,0,410.431,201.211Z" transform="translate(-370.308 -181.149)"/></g><g transform="translate(11.192 44.089)"><path class="f" d="M376.984,209.654v15.439l2.843,4.207h13.781l3.375-4.207V209.654Z" transform="translate(-376.984 -209.654)"/></g><g transform="translate(11.192 58.346)"><path class="c" d="M396.984,219.114l-3.375,5.389H379.828l-2.843-5.389Z" transform="translate(-376.984 -219.114)"/></g><path class="e" d="M398,245.265H382.912l-3.293-6.241V219.607a21.175,21.175,0,0,1-5.08-31.666l1.729,1.457a18.913,18.913,0,0,0,5.047,28.588l.565.327v20.152L384.275,243H396.75l2.869-4.585V218.312l.565-.327A18.926,18.926,0,0,0,383.64,184.04l-.85-2.095a21.186,21.186,0,0,1,19.09,37.662v19.462Z" transform="translate(-369.558 -180.399)"/><g transform="translate(7.036 2.818)"><path class="e" d="M375.835,186.466l-1.608-1.59a11.97,11.97,0,0,1,3.206-2.387l.384-.22,1.127,1.958-.386.223A9.74,9.74,0,0,0,375.835,186.466Z" transform="translate(-374.227 -182.269)"/></g><g transform="translate(8.175 43.57)"><rect class="e" width="26.032" height="2.261"/></g><g transform="translate(8.175 48.119)"><rect class="e" width="26.032" height="2.261"/></g><g transform="translate(8.175 52.667)"><rect class="e" width="26.032" height="2.261"/></g><g transform="translate(8.175 57.216)"><rect class="e" width="26.032" height="2.261"/></g><g transform="translate(10.635 10.649)"><path class="f" d="M397.728,198.021a10.556,10.556,0,1,1-10.557-10.556A10.557,10.557,0,0,1,397.728,198.021Z" transform="translate(-376.615 -187.465)"/></g><g transform="translate(14.89 7.466)"><path class="e" d="M388.384,185.921l-6.022,12.967-1.008-1.642h10.363l-.864,1.621-7.4,13.892-.884-.426,6.252-14.448,1.018,1.621h-10.4l.908-1.642,6.919-12.511Z" transform="translate(-379.438 -185.353)"/></g></g><g transform="translate(591.667 121.806)"><g transform="translate(1.132 1.13)"><path class="d" d="M446.813,218.409a6.412,6.412,0,0,0-11-4.488,6.412,6.412,0,0,0-9.2,8.932l9.173,9.128,9.407-9.326c.1-.118.368-.455.368-.455A6.385,6.385,0,0,0,446.813,218.409Z" transform="translate(-424.819 -211.992)"/></g><path class="e" d="M436.17,233.955l-9.972-9.92a7.543,7.543,0,0,1,10-11.243,7.47,7.47,0,0,1,4.578-1.551,7.556,7.556,0,0,1,7.55,7.547,7.48,7.48,0,0,1-1.469,4.461c-.021.03-.313.4-.425.527ZM431.617,213.5a5.28,5.28,0,0,0-3.807,8.947l8.363,8.319,8.607-8.535c.038-.047.276-.351.276-.351a5.211,5.211,0,0,0,1.008-3.094,5.285,5.285,0,0,0-9.062-3.7l-.808.826-.806-.826A5.236,5.236,0,0,0,431.617,213.5Z" transform="translate(-424.068 -211.242)"/></g></g></g><g class="a" transform="translate(218.526 500.111)"><g transform="translate(48.117 79.062)"><g transform="translate(0 29.344)"><path class="b" d="M106.2,115.069h0A16.535,16.535,0,0,0,122.731,131.6h80.524a13.666,13.666,0,0,1,13.666,13.666h0a13.666,13.666,0,0,1-13.666,13.666H63.548a21.032,21.032,0,0,0-21.031,21.033h0A21.031,21.031,0,0,0,63.548,201H130.4a16.659,16.659,0,0,1,16.659,16.659h0A16.659,16.659,0,0,1,130.4,234.317H125.76a28.8,28.8,0,0,0-28.8,28.8h0a28.8,28.8,0,0,0,28.8,28.8h352.3a19,19,0,0,0,19-19h0a19,19,0,0,0-19-19H467.9a14.56,14.56,0,0,1-14.56-14.561h0a14.56,14.56,0,0,1,14.56-14.561h79.333a20.19,20.19,0,0,0,20.19-20.192h0a20.19,20.19,0,0,0-20.19-20.19H487.848a17.965,17.965,0,0,1-17.964-17.964h0a17.965,17.965,0,0,1,17.964-17.964H615.479a24.974,24.974,0,0,0,24.975-24.974h0a24.974,24.974,0,0,0-24.975-24.975H122.731A16.535,16.535,0,0,0,106.2,115.069Z" transform="translate(-42.517 -98.533)"/></g><g transform="translate(474.327 44.683)"><path class="c" d="M360.72,110.444a1.734,1.734,0,1,1-1.733-1.733A1.733,1.733,0,0,1,360.72,110.444Z" transform="translate(-357.252 -108.711)"/></g><g transform="translate(114.76 52.142)"><path class="c" d="M121.69,115.172a1.512,1.512,0,1,1-1.513-1.512A1.514,1.514,0,0,1,121.69,115.172Z" transform="translate(-118.665 -113.66)"/></g><g transform="translate(39.707 23.62)"><path class="c" d="M71.889,96.248a1.512,1.512,0,1,1-1.512-1.513A1.511,1.511,0,0,1,71.889,96.248Z" transform="translate(-68.864 -94.735)"/></g><g transform="translate(311.122 75.284)"><path class="c" d="M251.984,130.528a1.512,1.512,0,1,1-1.513-1.512A1.512,1.512,0,0,1,251.984,130.528Z" transform="translate(-248.959 -129.016)"/></g><g transform="translate(461.034 102.148)"><circle class="c" cx="1.442" cy="1.442" r="1.442"/></g><g transform="translate(309.017)"><path class="c" d="M251.773,81.167a2.105,2.105,0,1,1-2.105-2.105A2.1,2.1,0,0,1,251.773,81.167Z" transform="translate(-247.562 -79.062)"/></g><g transform="translate(339.686 46.416)"><path class="c" d="M272.123,111.966a2.105,2.105,0,1,1-2.105-2.105A2.1,2.1,0,0,1,272.123,111.966Z" transform="translate(-267.912 -109.861)"/></g><g transform="translate(491.898 90.953)"><path class="c" d="M373.122,141.52a2.105,2.105,0,1,1-2.105-2.107A2.106,2.106,0,0,1,373.122,141.52Z" transform="translate(-368.911 -139.413)"/></g><g transform="translate(184.281 8.928)"><path class="c" d="M169.826,87.5a2.515,2.515,0,1,1-2.515-2.515A2.516,2.516,0,0,1,169.826,87.5Z" transform="translate(-164.795 -84.986)"/></g><g transform="translate(479.828 2.105)"><path class="c" d="M368.727,84.373c-2.642.7-3.212,1.269-3.912,3.911-.7-2.642-1.269-3.21-3.912-3.911,2.643-.7,3.211-1.27,3.912-3.914C365.515,83.1,366.085,83.671,368.727,84.373Z" transform="translate(-360.902 -80.459)"/></g><g transform="translate(43.795 68.939)"><path class="c" d="M79.4,128.718c-2.642.7-3.21,1.269-3.912,3.912-.7-2.643-1.269-3.212-3.912-3.912,2.643-.7,3.212-1.27,3.912-3.912C76.192,127.448,76.76,128.016,79.4,128.718Z" transform="translate(-71.577 -124.806)"/></g><g transform="translate(233.089 48.522)"><path class="c" d="M204.421,114.878c-2.446.648-2.972,1.174-3.62,3.62-.65-2.446-1.174-2.972-3.62-3.62,2.446-.648,2.97-1.174,3.62-3.62C201.449,113.7,201.975,114.23,204.421,114.878Z" transform="translate(-197.181 -111.258)"/></g><g transform="translate(16.08 169.388)"><path class="c" d="M63.62,196.674c-3.525.934-4.282,1.692-5.217,5.216-.934-3.523-1.692-4.282-5.216-5.216,3.524-.934,4.282-1.692,5.216-5.216C59.339,194.982,60.1,195.74,63.62,196.674Z" transform="translate(-53.187 -191.458)"/></g><g transform="translate(198.228 102.803)"><path class="c" d="M180.388,150.447c-2.142.567-2.6,1.028-3.169,3.169-.568-2.142-1.029-2.6-3.169-3.169,2.14-.57,2.6-1.029,3.169-3.171C177.787,149.418,178.246,149.877,180.388,150.447Z" transform="translate(-174.049 -147.276)"/></g><g transform="translate(179.864 65.768)"><path class="c" d="M168.2,125.873c-2.142.568-2.6,1.028-3.169,3.169-.568-2.142-1.029-2.6-3.169-3.169,2.14-.568,2.6-1.029,3.169-3.171C165.6,124.844,166.061,125.3,168.2,125.873Z" transform="translate(-161.864 -122.702)"/></g><g transform="translate(375.316 69.681)"><path class="c" d="M297.894,128.469c-2.141.568-2.6,1.028-3.171,3.169-.568-2.142-1.028-2.6-3.169-3.169,2.142-.568,2.6-1.029,3.169-3.171C295.292,127.44,295.753,127.9,297.894,128.469Z" transform="translate(-291.554 -125.298)"/></g><g transform="translate(572.984 168.264)"><path class="c" d="M429.055,193.883c-2.142.568-2.6,1.028-3.171,3.169-.567-2.142-1.028-2.6-3.169-3.169,2.142-.568,2.6-1.029,3.169-3.171C426.454,192.854,426.914,193.315,429.055,193.883Z" transform="translate(-422.715 -190.712)"/></g><g transform="translate(545.149 88.34)"><path class="c" d="M416.181,143.647c-4.031,1.07-4.9,1.937-5.968,5.968-1.07-4.031-1.937-4.9-5.968-5.968,4.031-1.07,4.9-1.937,5.968-5.968C411.283,141.71,412.15,142.577,416.181,143.647Z" transform="translate(-404.245 -137.679)"/></g><g transform="translate(533.833 115.515)"><rect class="b" width="77.618" height="38.019" rx="12.613"/></g></g><g transform="translate(31.474 156.461)"><g transform="translate(30.68 123.941)"><g transform="translate(1.125 1.126)"><path class="d" d="M56.857,215.094a9.766,9.766,0,1,0,13.565,2.591A9.766,9.766,0,0,0,56.857,215.094Z" transform="translate(-52.578 -213.405)"/></g><path class="e" d="M62.739,234.442a10.892,10.892,0,0,1-6.138-19.9v0a10.9,10.9,0,1,1,6.138,19.905ZM57.87,216.407a8.636,8.636,0,1,0,12,2.291,8.647,8.647,0,0,0-12-2.291Z" transform="translate(-51.831 -212.659)"/></g><g transform="translate(545.886 92.475)"><g transform="translate(17.3)"><g transform="translate(1.13 1.382)"><path class="d" d="M412.5,243.439h-6.134a.448.448,0,0,1-.449-.448V198.13a.45.45,0,0,1,.041-.188l3.068-4.984a.448.448,0,0,1,.814,0l3.067,4.984a.454.454,0,0,1,.042.188v44.861A.449.449,0,0,1,412.5,243.439Z" transform="translate(-405.92 -192.697)"/></g><g transform="translate(1.131 8.326)"><rect class="c" width="7.031" height="39.265"/></g><path class="e" d="M414.463,245.034H405.17V198.182l3.435-5.7a1.351,1.351,0,0,1,1.212-.7,1.4,1.4,0,0,1,1.269.811l3.377,5.591Zm-7.032-2.261H412.2V198.811l-2.389-3.964-2.383,3.964Z" transform="translate(-405.17 -191.78)"/><g transform="translate(0.986 7.196)"><rect class="e" width="7.176" height="2.261"/></g><g transform="translate(0.818 46.46)"><rect class="e" width="7.656" height="2.261"/></g></g><g transform="translate(0 6.643)"><g transform="translate(26.869 0.081)"><path class="e" d="M412.066,238.886l-.546-2.194a19.818,19.818,0,0,0,.656-38.276l.621-2.173a22.078,22.078,0,0,1-.731,42.644Z" transform="translate(-411.52 -196.242)"/></g><path class="e" d="M410.165,238.849a22.078,22.078,0,0,1-.185-42.661l.592,2.182a19.817,19.817,0,0,0,.164,38.29Z" transform="translate(-393.691 -196.188)"/><g transform="translate(28.378 1.103)"><path class="e" d="M414.438,237.361l-1.917-1.2a38.845,38.845,0,0,0,.09-38.055l1.922-1.188a41.083,41.083,0,0,1-.095,40.441Z" transform="translate(-412.521 -196.92)"/></g><g transform="translate(9.011 1.103)"><path class="e" d="M405.043,237.362a41.051,41.051,0,0,1-.093-40.442l1.922,1.188a38.809,38.809,0,0,0,.089,38.055Z" transform="translate(-399.67 -196.92)"/></g><g transform="translate(27.831 20.173)"><rect class="e" width="15.181" height="2.261"/></g><g transform="translate(28.998 10.225)"><rect class="e" width="12.049" height="2.261"/></g><g transform="translate(1.131 20.173)"><rect class="e" width="15.268" height="2.261"/></g><g transform="translate(2.925 10.225)"><rect class="e" width="12.566" height="2.261"/></g><g transform="translate(28.742 30.124)"><rect class="e" width="11.16" height="2.261"/></g><g transform="translate(4.21 30.124)"><rect class="e" width="11.147" height="2.261"/></g></g></g><g transform="translate(99.844 0)"><g transform="translate(1.13 1.131)"><path class="d" d="M3.026,0h73.6a3.026,3.026,0,0,1,3.026,3.026V142.469a0,0,0,0,1,0,0H0a0,0,0,0,1,0,0V3.026A3.026,3.026,0,0,1,3.026,0Z"/></g><g transform="translate(1.13 1.13)"><path class="c" d="M178.127,146.547H98.474V135.916a4.748,4.748,0,0,1,4.747-4.747H173.38a4.748,4.748,0,0,1,4.747,4.747Z" transform="translate(-98.474 -131.169)"/></g><path class="e" d="M99.985,204.519H97.724V136.3a5.885,5.885,0,0,1,5.878-5.878H173.76a5.884,5.884,0,0,1,5.878,5.878V192.43h-2.261V136.3a3.622,3.622,0,0,0-3.617-3.617H103.6a3.622,3.622,0,0,0-3.617,3.617Z" transform="translate(-97.724 -130.419)"/><g transform="translate(0 94.822)"><rect class="e" width="2.261" height="48.778"/></g><g transform="translate(1.713 15.779)"><rect class="e" width="79.071" height="2.261"/></g><g transform="translate(13.043 62.318)"><rect class="b" width="55.374" height="11.82"/></g><g transform="translate(13.043 82.216)"><rect class="b" width="55.374" height="11.82"/></g><g transform="translate(9.084 6.121)"><rect class="e" width="2.414" height="2.261"/></g><g transform="translate(20.864 67.098)"><rect class="e" width="36.196" height="2.261"/></g><g transform="translate(19.719 86.995)"><rect class="e" width="1.833" height="2.261"/></g><g transform="translate(25.479 86.995)"><rect class="e" width="1.832" height="2.261"/></g><g transform="translate(31.239 86.995)"><rect class="e" width="1.833" height="2.261"/></g><g transform="translate(36.998 86.995)"><rect class="e" width="1.833" height="2.261"/></g><g transform="translate(42.759 86.995)"><rect class="e" width="1.832" height="2.261"/></g><g transform="translate(48.519 86.995)"><rect class="e" width="1.833" height="2.261"/></g><g transform="translate(54.279 86.995)"><rect class="e" width="1.832" height="2.261"/></g><g transform="translate(14.947 6.121)"><rect class="e" width="2.414" height="2.261"/></g><g transform="translate(20.811 6.121)"><rect class="e" width="2.414" height="2.261"/></g><g transform="translate(32.902 27.444)"><g transform="translate(2.246)"><path class="e" d="M126.3,159.145a5.258,5.258,0,1,1,5.26-5.258A5.263,5.263,0,0,1,126.3,159.145Zm0-8.256a3,3,0,1,0,3,3A3,3,0,0,0,126.3,150.89Z" transform="translate(-121.046 -148.629)"/></g><g transform="translate(0 11.421)"><path class="e" d="M135.211,167.884h-2.261v-3.849a5.567,5.567,0,1,0-11.134,0v3.849h-2.261v-3.849a7.828,7.828,0,1,1,15.655,0Z" transform="translate(-119.556 -156.207)"/></g></g><g transform="translate(24.231 23.06)"><path class="e" d="M130.3,178.717a16.5,16.5,0,1,1,16.5-16.5A16.517,16.517,0,0,1,130.3,178.717Zm0-30.737a14.238,14.238,0,1,0,14.239,14.237A14.254,14.254,0,0,0,130.3,147.981Z" transform="translate(-113.802 -145.72)"/></g></g><g transform="translate(50.259 72.968)"><g transform="translate(12.395 53.572)"><rect class="d" width="30.21" height="18.059"/></g><g transform="translate(11.264 52.442)"><path class="e" d="M104.767,232.823h-2.261V215.894H74.557v16.929H72.3V213.633h32.47Z" transform="translate(-72.297 -213.633)"/></g><g transform="translate(0 4.506)"><path class="e" d="M78.651,199.032c-15.782-3.787-13.754-16.151-13.732-16.275l.167-.931H75.817v2.261H67.063c-.086,2.628.734,10.016,12.115,12.747Z" transform="translate(-64.823 -181.826)"/></g><g transform="translate(41.546 4.506)"><path class="e" d="M92.916,199.032l-.526-2.2c11.443-2.746,12.224-10.121,12.123-12.747H95.751v-2.261h10.732l.167.931C106.671,182.881,108.7,195.245,92.916,199.032Z" transform="translate(-92.39 -181.826)"/></g><g transform="translate(10.823 1.132)"><path class="b" d="M106.219,186.617a22.53,22.53,0,0,0-1.129-7.03H73.133A22.529,22.529,0,0,0,72,186.617c0,10.179,6.624,20.365,15.148,21.749v13.616h3.92V208.366C99.6,206.982,106.219,196.8,106.219,186.617Z" transform="translate(-72.004 -179.587)"/></g><g transform="translate(13.388 1.132)"><path class="d" d="M87.226,208.355c-7.914-2.12-9.675-12.063-9.675-21.738a22.529,22.529,0,0,1,1.129-7.03H74.833a22.529,22.529,0,0,0-1.127,7.03c0,10.179,4.059,20.365,12.583,21.749A2.5,2.5,0,0,0,87.226,208.355Z" transform="translate(-73.706 -179.587)"/></g><g transform="translate(20.147 0.001)"><rect class="e" width="3.131" height="2.261"/></g><g transform="translate(9.692)"><path class="e" d="M92.582,223.493H86.4v-13.82C77.966,207.686,71.254,197.765,71.254,187a23.682,23.682,0,0,1,1.185-7.383l.255-.779h6.12V181.1H74.348a21.375,21.375,0,0,0-.833,5.9c0,9.936,6.5,19.384,14.2,20.633l.949.154v13.448h1.659V207.785l.949-.154c7.7-1.249,14.2-10.7,14.2-20.633a21.358,21.358,0,0,0-.833-5.9H86.814v-2.261H106.29l.253.778A23.648,23.648,0,0,1,107.73,187c0,10.767-6.711,20.688-15.148,22.675Z" transform="translate(-71.254 -178.836)"/></g><g transform="translate(23.999 33.068)"><rect class="e" width="8.07" height="2.261"/></g><g transform="translate(23.999 36.067)"><rect class="e" width="8.07" height="2.261"/></g><g transform="translate(17.858 42.042)"><path class="f" d="M1.089,0h17.8a1.088,1.088,0,0,1,1.088,1.088V8.881a0,0,0,0,1,0,0H0a0,0,0,0,1,0,0V1.089A1.089,1.089,0,0,1,1.089,0Z"/></g><g transform="translate(16.727 40.912)"><path class="e" d="M98.156,217.125H75.922v-8.372a2.774,2.774,0,0,1,2.77-2.77H95.384a2.774,2.774,0,0,1,2.772,2.77Zm-19.973-2.261H95.9v-6.111a.511.511,0,0,0-.511-.509H78.692a.511.511,0,0,0-.509.509Z" transform="translate(-75.922 -205.983)"/></g><g transform="translate(22.486 43.562)"><rect class="d" width="10.717" height="4.275"/></g><g transform="translate(25.253 44.57)"><rect class="e" width="5.038" height="2.261"/></g><g transform="translate(14.092 49.794)"><rect class="e" width="27.119" height="2.261"/></g><g transform="translate(4.302 52.442)"><rect class="e" width="46.814" height="2.261"/></g><g transform="translate(8.077 55.04)"><path class="f" d="M78.816,219.673a4.317,4.317,0,1,1-4.316-4.316A4.317,4.317,0,0,1,78.816,219.673Z" transform="translate(-70.182 -215.357)"/></g><g transform="translate(38.287 55.04)"><path class="f" d="M98.862,219.673a4.317,4.317,0,1,1-4.318-4.316A4.318,4.318,0,0,1,98.862,219.673Z" transform="translate(-90.228 -215.357)"/></g><g transform="translate(6.948 53.909)"><path class="e" d="M74.88,225.5a5.447,5.447,0,1,1,5.448-5.447A5.452,5.452,0,0,1,74.88,225.5Zm0-8.633a3.186,3.186,0,1,0,3.187,3.186A3.189,3.189,0,0,0,74.88,216.868Z" transform="translate(-69.433 -214.607)"/></g><g transform="translate(37.157 53.909)"><path class="e" d="M94.925,225.5a5.447,5.447,0,1,1,5.448-5.447A5.453,5.453,0,0,1,94.925,225.5Zm0-8.633a3.186,3.186,0,1,0,3.187,3.186A3.189,3.189,0,0,0,94.925,216.868Z" transform="translate(-89.478 -214.607)"/></g><g transform="translate(11.408 58.226)"><rect class="e" width="1.974" height="2.261"/></g><g transform="translate(41.617 58.226)"><rect class="e" width="1.974" height="2.261"/></g><g transform="translate(20.976 60.696)"><rect class="e" width="2.261" height="10.936"/></g><g transform="translate(26.369 60.696)"><rect class="e" width="2.261" height="10.936"/></g><g transform="translate(31.762 60.696)"><rect class="e" width="2.261" height="10.936"/></g></g><g transform="translate(425.23 45.348)"><g transform="translate(17.379 11.778)"><rect class="b" width="23.25" height="76.733" rx="1.355"/></g><g transform="translate(47.387 1.13)"><rect class="c" width="13.004" height="87.381" rx="1.355"/></g><g transform="translate(51.908 18.566)"><rect class="g" width="4.521" height="55.215"/></g><g transform="translate(67.274 9.056)"><rect class="b" width="20.137" height="79.455" rx="1.355"/></g><g transform="translate(16.248 10.647)"><path class="e" d="M349.924,206.021h-2.261V172.849a3.018,3.018,0,0,0-3.014-3.014H329.687a3.018,3.018,0,0,0-3.014,3.014v6.206h-2.261v-6.206a5.281,5.281,0,0,1,5.275-5.275h14.962a5.281,5.281,0,0,1,5.275,5.275Z" transform="translate(-324.412 -167.574)"/></g><g transform="translate(46.256)"><path class="e" d="M359.589,206.889h-2.261V166.111a3.345,3.345,0,0,0-3.343-3.341H349.6a3.018,3.018,0,0,0-3.014,3.013v41.107h-2.261V165.782a5.28,5.28,0,0,1,5.275-5.273h4.387a5.609,5.609,0,0,1,5.6,5.6Z" transform="translate(-344.324 -160.509)"/></g><g transform="translate(66.142 7.926)"><path class="e" d="M359.78,206.937h-2.261V171.043a5.281,5.281,0,0,1,5.275-5.275h11.85a5.281,5.281,0,0,1,5.275,5.275v21.286h-2.261V171.043a3.018,3.018,0,0,0-3.014-3.014h-11.85a3.018,3.018,0,0,0-3.014,3.014Z" transform="translate(-357.519 -165.768)"/></g><g transform="translate(23.059 19.814)"><rect class="e" width="11.889" height="2.261"/></g><g transform="translate(23.059 29.324)"><rect class="e" width="11.889" height="2.261"/></g><g transform="translate(23.059 38.835)"><rect class="e" width="11.889" height="2.261"/></g><g transform="translate(23.059 48.346)"><rect class="e" width="11.889" height="2.261"/></g><g transform="translate(23.059 57.856)"><rect class="e" width="6.462" height="2.261"/></g><g transform="translate(23.059 67.367)"><rect class="e" width="11.889" height="2.261"/></g><g transform="translate(23.059 76.878)"><rect class="e" width="11.889" height="2.261"/></g><g transform="translate(70.208 16.189)"><path class="c" d="M374.484,178.384a7.134,7.134,0,1,1-7.134-7.133A7.134,7.134,0,0,1,374.484,178.384Z" transform="translate(-360.217 -171.251)"/></g><g transform="translate(70.208 63.743)"><path class="c" d="M374.484,209.936a7.134,7.134,0,1,1-7.134-7.131A7.133,7.133,0,0,1,374.484,209.936Z" transform="translate(-360.217 -202.805)"/></g><g transform="translate(0 49.375)"><g transform="translate(1.13 1.13)"><path class="b" d="M409.688,220.437h-.422a15.319,15.319,0,0,0-23-8.629,20.988,20.988,0,0,0-40.786-3.022A14.355,14.355,0,0,0,327.5,220.437h-2.349a10.8,10.8,0,0,0-10.77,10.768V232a10.8,10.8,0,0,0,10.77,10.768h84.537A10.8,10.8,0,0,0,420.456,232V231.2A10.8,10.8,0,0,0,409.688,220.437Z" transform="translate(-314.381 -194.021)"/></g><g transform="translate(2.515 6.905)"><path class="d" d="M399.316,221.139h-.371a13.5,13.5,0,0,0-20.279-7.608,18.5,18.5,0,0,0-35.956-2.663,12.654,12.654,0,0,0-15.847,10.271h-2.071a9.52,9.52,0,0,0-9.493,9.493v.7a9.52,9.52,0,0,0,9.493,9.493h74.523a9.521,9.521,0,0,0,9.495-9.493v-.7A9.521,9.521,0,0,0,399.316,221.139Z" transform="translate(-315.3 -197.853)"/></g><g transform="translate(41.8 8.108)"><path class="e" d="M364.579,208.373a16.364,16.364,0,0,0-22.06-5.183l-1.151-1.946a18.624,18.624,0,0,1,25.108,5.9Z" transform="translate(-341.367 -198.651)"/></g><g transform="translate(28.747 14.194)"><path class="e" d="M341.311,211.294h-2.261a6.353,6.353,0,0,0-6.345-6.345v-2.261A8.616,8.616,0,0,1,341.311,211.294Z" transform="translate(-332.706 -202.689)"/></g><path class="e" d="M410.068,244.278H325.531a11.913,11.913,0,0,1-11.9-11.9v-.794a11.912,11.912,0,0,1,11.9-11.9v2.261a9.648,9.648,0,0,0-9.639,9.638v.794a9.649,9.649,0,0,0,9.639,9.638h84.537a9.65,9.65,0,0,0,9.639-9.638v-.794a9.649,9.649,0,0,0-9.639-9.638H408.8l-.237-.815a14.188,14.188,0,0,0-21.307-7.994l-1.462.939-.265-1.72a19.858,19.858,0,0,0-38.59-2.857l-.321,1.04-1.05-.283a13.317,13.317,0,0,0-3.454-.47v-2.261a15.284,15.284,0,0,1,3,.3,22.12,22.12,0,0,1,42.341,2.586,16.453,16.453,0,0,1,23.02,9.276,11.915,11.915,0,0,1,11.493,11.892v.794A11.913,11.913,0,0,1,410.068,244.278Z" transform="translate(-313.631 -193.271)"/></g></g><g transform="translate(257.212 14.53)"><g transform="translate(1.131 1.131)"><path class="c" d="M4.818,0H143.963a4.818,4.818,0,0,1,4.818,4.818V88.5a0,0,0,0,1,0,0H0a0,0,0,0,1,0,0V4.818A4.818,4.818,0,0,1,4.818,0Z"/></g><path class="e" d="M204.4,189h-2.261V148.634a8.584,8.584,0,0,1,8.574-8.574h23.836v2.261H210.718a6.321,6.321,0,0,0-6.313,6.313Z" transform="translate(-202.144 -140.06)"/><g transform="translate(65.371)"><path class="e" d="M331.191,193.193H328.93V148.634a6.321,6.321,0,0,0-6.312-6.313h-77.1V140.06h77.1a8.584,8.584,0,0,1,8.572,8.574Z" transform="translate(-245.52 -140.06)"/></g><g transform="translate(39.001 0.001)"><rect class="e" width="16.42" height="2.261"/></g><g transform="translate(9.204 9.784)"><rect class="d" width="132.801" height="69.897"/></g><g transform="translate(53.109 103.038)"><rect class="b" width="44.825" height="26.535"/></g><g transform="translate(53.109 103.038)"><rect class="f" width="44.825" height="13.268"/></g><g transform="translate(51.979 101.908)"><path class="e" d="M283.719,236.476H236.634v-28.8h47.085Zm-44.825-2.261h42.564V209.941H238.895Z" transform="translate(-236.634 -207.68)"/></g><g transform="translate(1.131 86.377)"><path class="d" d="M0,0H148.781a0,0,0,0,1,0,0V14.212a5.88,5.88,0,0,1-5.88,5.88H5.88A5.88,5.88,0,0,1,0,14.212V0A0,0,0,0,1,0,0Z"/></g><g transform="translate(25.063 105.339)"><rect class="e" width="106.944" height="2.261"/></g><g transform="translate(25.244 85.247)"><rect class="e" width="105.075" height="2.261"/></g><g transform="translate(44.394 128.939)"><rect class="e" width="62.84" height="2.261"/></g><g transform="translate(18.612 20.266)"><rect class="b" width="57.202" height="34.756" rx="1.075"/></g><g transform="translate(17.482 19.135)"><path class="e" d="M270.456,189.774H216.493a2.752,2.752,0,0,1-2.749-2.749V155.509a2.753,2.753,0,0,1,2.749-2.752h53.964a2.753,2.753,0,0,1,2.749,2.75v31.517A2.752,2.752,0,0,1,270.456,189.774Zm-53.964-34.756a.49.49,0,0,0-.488.491v31.516a.488.488,0,0,0,.488.488h53.964a.488.488,0,0,0,.488-.488V155.507a.489.489,0,0,0-.488-.49Z" transform="translate(-213.744 -152.757)"/></g><g transform="translate(39.001 28.363)"><path class="c" d="M243.793,169.291l-13.812,7.975a1.306,1.306,0,0,1-1.958-1.13V160.187a1.306,1.306,0,0,1,1.958-1.13l13.812,7.974A1.306,1.306,0,0,1,243.793,169.291Z" transform="translate(-228.023 -158.88)"/></g><g transform="translate(37.871 27.231)"><path class="e" d="M229.708,178.955a2.444,2.444,0,0,1-2.435-2.438V160.567a2.435,2.435,0,0,1,3.653-2.108l13.812,7.974a2.437,2.437,0,0,1,0,4.218l-13.812,7.974A2.433,2.433,0,0,1,229.708,178.955Zm0-18.564a.184.184,0,0,0-.089.024.164.164,0,0,0-.087.152v15.949a.175.175,0,0,0,.262.151l13.812-7.974a.176.176,0,0,0,0-.3L229.8,160.415A.19.19,0,0,0,229.71,160.391Z" transform="translate(-227.273 -158.129)"/></g><g transform="translate(18.612 63.407)"><rect class="e" width="27.592" height="2.261"/></g><g transform="translate(110.809 24.466)"><rect class="e" width="27.591" height="2.261"/></g><g transform="translate(110.809 32.976)"><rect class="e" width="13.796" height="2.261"/></g><g transform="translate(110.809 49.637)"><rect class="e" width="27.591" height="2.261"/></g><g transform="translate(110.809 58.147)"><rect class="e" width="13.796" height="2.261"/></g><g transform="translate(110.809 74.808)"><rect class="e" width="27.591" height="2.261"/></g><g transform="translate(16.802 70.9)"><rect class="e" width="61.355" height="2.261"/></g><g transform="translate(88.634 20.433)"><rect class="c" width="18.6" height="18.6"/></g><g transform="translate(88.634 45.722)"><rect class="c" width="18.6" height="18.6"/></g><g transform="translate(88.634 71.011)"><rect class="c" width="18.6" height="9.3"/></g></g><g class="h" transform="translate(387.726 66.801)"><path class="i" d="M309.274,220.081V175.874h-1.656v-1.13h-6.312v1.13h-4.4v-1.13h-3.49a4.673,4.673,0,0,0-4.669,4.667v50.662h10.536A10,10,0,0,0,309.274,220.081Z" transform="translate(-288.745 -174.744)"/></g><g class="h" transform="translate(425.23 69.815)"><path class="i" d="M341.441,247.991V181.411a4.673,4.673,0,0,0-4.669-4.667h-6.893V218.11h1.13v2.452a15.481,15.481,0,0,0-4.065,7.505h-1.414a11.912,11.912,0,0,0-11.9,11.9v.794a11.913,11.913,0,0,0,11.9,11.9h11.241A4.673,4.673,0,0,0,341.441,247.991Z" transform="translate(-313.631 -176.744)"/></g><g transform="translate(390.74 69.814)"><g transform="translate(1.131 1.13)"><path class="d" d="M1.778,0H55.247a1.778,1.778,0,0,1,1.778,1.778v70.1a1.778,1.778,0,0,1-1.778,1.778H1.779A1.779,1.779,0,0,1,0,71.876V1.778A1.778,1.778,0,0,1,1.778,0Z"/></g><g transform="translate(0 0)"><path class="e" d="M345.363,252.658H295.414a4.673,4.673,0,0,1-4.669-4.667V181.411a4.673,4.673,0,0,1,4.669-4.667h3.49V179h-3.49a2.41,2.41,0,0,0-2.408,2.407v66.579a2.411,2.411,0,0,0,2.408,2.407h49.949a2.411,2.411,0,0,0,2.408-2.407V181.411A2.41,2.41,0,0,0,345.363,179H313.137v-2.261h32.226a4.673,4.673,0,0,1,4.669,4.667v66.579A4.673,4.673,0,0,1,345.363,252.658Z" transform="translate(-290.745 -176.744)"/></g><g transform="translate(12.562)"><rect class="e" width="6.311" height="2.261"/></g><g transform="translate(6.495 8.641)"><rect class="b" width="46.298" height="59.145"/></g><g transform="translate(23.151 3.91)"><rect class="e" width="12.985" height="2.261"/></g><g transform="translate(40.297 1.13)"><path class="c" d="M328.931,219.856l-5.724-1.989-5.723,1.989V177.494h11.447Z" transform="translate(-317.484 -177.494)"/></g><g transform="translate(39.166 0)"><path class="e" d="M330.441,221.826l-6.854-2.383-6.854,2.383V176.744h13.708Zm-6.854-4.776,4.594,1.6V179h-9.187v39.642Z" transform="translate(-316.733 -176.744)"/></g><g transform="translate(9.918 13.598)"><rect class="e" width="27.003" height="2.261"/></g><g transform="translate(9.918 20.496)"><rect class="e" width="27.003" height="2.261"/></g><g transform="translate(9.918 27.393)"><rect class="e" width="27.003" height="2.261"/></g><g transform="translate(9.918 34.291)"><rect class="e" width="27.003" height="2.261"/></g><g transform="translate(9.918 41.188)"><rect class="e" width="27.003" height="2.261"/></g><g transform="translate(9.918 48.086)"><rect class="e" width="39.184" height="2.261"/></g><g transform="translate(9.918 54.983)"><rect class="e" width="39.184" height="2.261"/></g><g transform="translate(9.918 61.881)"><rect class="e" width="39.184" height="2.261"/></g><g transform="translate(27.369 69.624)"><rect class="e" width="4.549" height="2.261"/></g></g><g transform="translate(0 143.469)"><rect class="e" width="659.114" height="2.261"/></g><g class="h" transform="translate(257.212 61.918)"><path class="i" d="M222.9,171.5H202.144v50.22a10,10,0,0,0,9.992,9.992h14.469V175.207A3.707,3.707,0,0,0,222.9,171.5Z" transform="translate(-202.144 -171.504)"/></g><g class="h" transform="translate(164.728 64.932)"><path class="i" d="M156.677,173.5h-7.058a3.706,3.706,0,0,0-3.7,3.7V243.5h-5.141l.936,5.7a6.078,6.078,0,0,0,1.38,2.97h13.583Z" transform="translate(-140.777 -173.504)"/></g><g transform="translate(167.742 50.565)"><g transform="translate(0 14.367)"><g transform="translate(6.271 1.131)"><rect class="c" width="103.516" height="74.405" rx="1"/></g><g transform="translate(5.141)"><path class="e" d="M148.449,199.748h-2.261V177.207a3.706,3.706,0,0,1,3.7-3.7h17.535v2.261H149.889a1.444,1.444,0,0,0-1.441,1.442Z" transform="translate(-146.188 -173.504)"/></g><g transform="translate(85.995)"><path class="e" d="M221.058,250.17v-2.261a1.443,1.443,0,0,0,1.442-1.442v-69.26a1.444,1.444,0,0,0-1.442-1.442H199.838V173.5h21.219a3.707,3.707,0,0,1,3.7,3.7v69.26A3.707,3.707,0,0,1,221.058,250.17Z" transform="translate(-199.838 -173.504)"/></g><g transform="translate(11.298 6.985)"><rect class="d" width="92.9" height="60.379"/></g><g transform="translate(1.332 71.126)"><path class="d" d="M250.306,229.24H149.267a4.952,4.952,0,0,1-4.887-4.15l-.719-4.39H190.49l1.792,2.573h12.94l1.938-2.573h49.332l-.625,3.819A5.633,5.633,0,0,1,250.306,229.24Z" transform="translate(-143.661 -220.699)"/></g><g transform="translate(0 69.997)"><path class="e" d="M250.754,230.75H149.716a6.061,6.061,0,0,1-6-5.1l-.936-5.7h48.752l1.792,2.571h11.785l1.937-2.571h51.228l-.841,5.132A6.74,6.74,0,0,1,250.754,230.75ZM145.44,222.211l.5,3.076a3.806,3.806,0,0,0,3.771,3.2H250.754a4.485,4.485,0,0,0,4.444-3.775l.411-2.5H208.17l-1.937,2.571H192.141l-1.792-2.571Z" transform="translate(-142.777 -219.95)"/></g></g><g transform="translate(67.789)"><rect class="e" width="4.844" height="2.261"/></g><g transform="translate(26.859 50.415)"><g transform="translate(2.247)"><path class="e" d="M167.347,207.938a5.257,5.257,0,1,1,5.26-5.257A5.263,5.263,0,0,1,167.347,207.938Zm0-8.254a3,3,0,1,0,3,3A3,3,0,0,0,167.347,199.684Z" transform="translate(-162.09 -197.423)"/></g><g transform="translate(0 11.421)"><path class="e" d="M176.256,216.676H174v-3.849a5.568,5.568,0,0,0-11.136,0v3.849H160.6v-3.849a7.828,7.828,0,0,1,15.657,0Z" transform="translate(-160.599 -205.001)"/></g></g><g transform="translate(16.714 42.406)"><path class="e" d="M189.2,224.344h-35.33V192.109h11.276v2.261h-9.015v27.714h30.809V194.37h-8.4v-2.261H189.2Z" transform="translate(-153.867 -192.109)"/></g><g transform="translate(60.033 43.52)"><rect class="e" width="37.373" height="2.261"/></g><g transform="translate(60.412 54.542)"><rect class="e" width="37.373" height="2.261"/></g><g transform="translate(60.79 65.565)"><rect class="e" width="18.687" height="2.261"/></g></g><g class="h" transform="translate(167.742 92.465)"><path class="i" d="M160.077,240.831V199.973a3.754,3.754,0,0,0-3.75-3.75h-5.755v-4.45h-2.261v4.45h-.393v38.014h-5.141l.936,5.7a6.054,6.054,0,0,0,3.712,4.643h8.9A3.755,3.755,0,0,0,160.077,240.831Z" transform="translate(-142.777 -191.773)"/></g><g transform="translate(124.971 92.465)"><g transform="translate(1.131 5.579)"><rect class="d" width="54.795" height="46.099" rx="1.804"/></g><g transform="translate(1.13 5.579)"><path class="f" d="M167.323,195.475H117.768a2.622,2.622,0,0,0-2.621,2.621v6.993h54.8V198.1A2.62,2.62,0,0,0,167.323,195.475Z" transform="translate(-115.147 -195.475)"/></g><g transform="translate(8.781)"><rect class="e" width="2.261" height="8.802"/></g><g transform="translate(14.865)"><rect class="e" width="2.261" height="8.802"/></g><g transform="translate(20.95)"><rect class="e" width="2.261" height="8.802"/></g><g transform="translate(27.035)"><rect class="e" width="2.261" height="8.802"/></g><g transform="translate(33.12)"><rect class="e" width="2.261" height="8.802"/></g><g transform="translate(39.205)"><rect class="e" width="2.261" height="8.802"/></g><g transform="translate(45.29)"><rect class="e" width="2.261" height="8.802"/></g><g transform="translate(14.047 20.003)"><circle class="b" cx="14.118" cy="14.118" r="14.118"/></g><g transform="translate(19.648 25.603)"><path class="d" d="M144.47,217.28a8.518,8.518,0,1,1-8.518-8.518A8.518,8.518,0,0,1,144.47,217.28Z" transform="translate(-127.434 -208.762)"/></g><g transform="translate(17.476 43.383)"><path class="e" d="M130.555,225.265a15.229,15.229,0,0,1-4.562-3.092l1.585-1.613a12.969,12.969,0,0,0,3.885,2.636Z" transform="translate(-125.993 -220.56)"/></g><g transform="translate(12.917 18.872)"><path class="e" d="M138.217,234.793a15.294,15.294,0,0,1-3.7-.454l.549-2.193a12.99,12.99,0,1,0-9.834-12.6,12.878,12.878,0,0,0,2.633,7.841l-1.8,1.365a15.25,15.25,0,1,1,12.158,6.042Z" transform="translate(-122.968 -204.296)"/></g><g transform="translate(20.963 28.391)"><path class="e" d="M133.645,221.278l-5.338-5.338,1.6-1.6,3.74,3.74,7.469-7.469,1.6,1.6Z" transform="translate(-128.307 -210.612)"/></g><g transform="translate(1.292 14.062)"><rect class="e" width="54.634" height="2.261"/></g><g transform="translate(0 4.45)"><path class="e" d="M167.7,243.085H118.148a3.756,3.756,0,0,1-3.751-3.751V198.476a3.755,3.755,0,0,1,3.751-3.75H167.7a3.754,3.754,0,0,1,3.75,3.75v40.858A3.755,3.755,0,0,1,167.7,243.085Zm-49.555-46.1a1.492,1.492,0,0,0-1.49,1.489v40.858a1.493,1.493,0,0,0,1.49,1.491H167.7a1.492,1.492,0,0,0,1.489-1.491V198.476a1.49,1.49,0,0,0-1.489-1.489Z" transform="translate(-114.397 -194.726)"/></g></g><g transform="translate(419.76 0.357)"><g transform="translate(1.409 1.13)"><path class="f" d="M310.936,179.2l2.408-13.026a24.784,24.784,0,1,1,9.446,10.851Z" transform="translate(-310.936 -131.406)"/></g><path class="e" d="M336.364,182.326A25.755,25.755,0,0,1,323.04,178.6L310,180.992l2.642-14.3a25.6,25.6,0,0,1-2.113-10.2,25.882,25.882,0,0,1,5.759-16.263l1.754,1.426a23.624,23.624,0,0,0-5.252,14.837,23.369,23.369,0,0,0,2.059,9.6l.143.321-2.172,11.76,10.672-1.958.372.234a23.557,23.557,0,1,0,3.1-41.588l-.9-2.072a25.838,25.838,0,1,1,10.305,49.533Z" transform="translate(-310.001 -130.656)"/><g transform="translate(8.027 3.439)"><path class="e" d="M316.932,138.727l-1.6-1.593a25.979,25.979,0,0,1,5.447-4.2l1.13,1.959A23.611,23.611,0,0,0,316.932,138.727Z" transform="translate(-315.327 -132.938)"/></g><g transform="translate(7.166 7.206)"><ellipse class="d" cx="19.072" cy="18.63" rx="19.072" ry="18.63"/></g><g transform="translate(21.544 18.162)"><path class="e" d="M326.346,158.053A2.06,2.06,0,0,1,324.3,156V144.761a2.05,2.05,0,0,1,3.076-1.775l9.733,5.62a2.049,2.049,0,0,1,0,3.551l-9.733,5.618A2.049,2.049,0,0,1,326.346,158.053Zm.211-12.929v10.512l9.1-5.257Z" transform="translate(-324.296 -142.708)"/></g></g><g class="h" transform="translate(506.504 80.529)"><g transform="translate(0 1.585)"><path class="i" d="M383.13,223.935a16.574,16.574,0,0,0-9.433-9.871v-2.8h1.13V184.9a18.872,18.872,0,0,0-1.418,1.486l-.871-.735a21.177,21.177,0,0,0,5.08,31.667v4.363h-1.885v2.261h1.885v2.288h-1.885v2.261h1.885v2.288h-1.885v2.261h1.885v2.288h-1.885v2.261h2.334l2.844,5.389h3.56v1.361a2.64,2.64,0,0,0,2.637,2.637h1.453a11.976,11.976,0,0,0,4.175-3.953v-.045h.027a11.812,11.812,0,0,0,1.86-6.358v-.794A11.915,11.915,0,0,0,383.13,223.935Z" transform="translate(-367.559 -184.905)"/></g><g transform="translate(7.035)"><path class="i" d="M372.461,184.3v-.451c-.081.078-.146.133-.234.22Z" transform="translate(-372.227 -183.853)"/></g></g><g transform="translate(509.516 75.323)"><g transform="translate(18.044 58.538)"><rect class="c" width="6.004" height="9.195" rx="1"/></g><g transform="translate(16.914 57.409)"><path class="e" d="M386.408,229.947h-2.99a2.64,2.64,0,0,1-2.637-2.637v-6.18a2.64,2.64,0,0,1,2.637-2.637h2.99a2.641,2.641,0,0,1,2.637,2.637v6.18A2.641,2.641,0,0,1,386.408,229.947Zm-2.99-9.195a.381.381,0,0,0-.377.377v6.18a.381.381,0,0,0,.377.377h2.99a.382.382,0,0,0,.377-.377v-6.18a.382.382,0,0,0-.377-.377Z" transform="translate(-380.781 -218.492)"/></g><g transform="translate(1.13 1.13)"><path class="d" d="M410.431,201.211a20.061,20.061,0,1,0-30.061,17.373v19.78l2.844,5.389h13.781l3.376-5.389v-19.78A20.038,20.038,0,0,0,410.431,201.211Z" transform="translate(-370.308 -181.149)"/></g><g transform="translate(11.192 44.089)"><path class="f" d="M376.984,209.654v15.439l2.843,4.207h13.781l3.375-4.207V209.654Z" transform="translate(-376.984 -209.654)"/></g><g transform="translate(11.192 58.346)"><path class="c" d="M396.984,219.114l-3.375,5.389H379.828l-2.843-5.389Z" transform="translate(-376.984 -219.114)"/></g><path class="e" d="M398,245.265H382.912l-3.293-6.241V219.607a21.175,21.175,0,0,1-5.08-31.666l1.729,1.457a18.913,18.913,0,0,0,5.047,28.588l.565.327v20.152L384.275,243H396.75l2.869-4.585V218.312l.565-.327A18.926,18.926,0,0,0,383.64,184.04l-.85-2.095a21.186,21.186,0,0,1,19.09,37.662v19.462Z" transform="translate(-369.558 -180.399)"/><g transform="translate(7.036 2.818)"><path class="e" d="M375.835,186.466l-1.608-1.59a11.97,11.97,0,0,1,3.206-2.387l.384-.22,1.127,1.958-.386.223A9.74,9.74,0,0,0,375.835,186.466Z" transform="translate(-374.227 -182.269)"/></g><g transform="translate(8.175 43.57)"><rect class="e" width="26.032" height="2.261"/></g><g transform="translate(8.175 48.119)"><rect class="e" width="26.032" height="2.261"/></g><g transform="translate(8.175 52.667)"><rect class="e" width="26.032" height="2.261"/></g><g transform="translate(8.175 57.216)"><rect class="e" width="26.032" height="2.261"/></g><g transform="translate(10.635 10.649)"><path class="f" d="M397.728,198.021a10.556,10.556,0,1,1-10.557-10.556A10.557,10.557,0,0,1,397.728,198.021Z" transform="translate(-376.615 -187.465)"/></g><g transform="translate(14.89 7.466)"><path class="e" d="M388.384,185.921l-6.022,12.967-1.008-1.642h10.363l-.864,1.621-7.4,13.892-.884-.426,6.252-14.448,1.018,1.621h-10.4l.908-1.642,6.919-12.511Z" transform="translate(-379.438 -185.353)"/></g></g><g transform="translate(591.667 121.806)"><g transform="translate(1.132 1.13)"><path class="d" d="M446.813,218.409a6.412,6.412,0,0,0-11-4.488,6.412,6.412,0,0,0-9.2,8.932l9.173,9.128,9.407-9.326c.1-.118.368-.455.368-.455A6.385,6.385,0,0,0,446.813,218.409Z" transform="translate(-424.819 -211.992)"/></g><path class="e" d="M436.17,233.955l-9.972-9.92a7.543,7.543,0,0,1,10-11.243,7.47,7.47,0,0,1,4.578-1.551,7.556,7.556,0,0,1,7.55,7.547,7.48,7.48,0,0,1-1.469,4.461c-.021.03-.313.4-.425.527ZM431.617,213.5a5.28,5.28,0,0,0-3.807,8.947l8.363,8.319,8.607-8.535c.038-.047.276-.351.276-.351a5.211,5.211,0,0,0,1.008-3.094,5.285,5.285,0,0,0-9.062-3.7l-.808.826-.806-.826A5.236,5.236,0,0,0,431.617,213.5Z" transform="translate(-424.068 -211.242)"/></g></g></g></g></svg>