<svg xmlns="http://www.w3.org/2000/svg" width="75.63" height="69.95" viewBox="0 0 75.63 69.95"><defs><style>.a{fill:#ea9600;}.b{fill:#ffd500;}.c{fill:#fff;}.d{fill:#9c0;}.e{fill:#f1f1f1;}.f{fill:#333f48;}</style></defs><g transform="translate(-25.785 -16.564)"><path class="a" d="M459.756,289.5a3.475,3.475,0,0,0-3.412-3.619H413.417a3.476,3.476,0,0,0-3.412,3.619v57.237a3.313,3.313,0,0,0,3.412,3.425H449.19l10.566-11.474Z" transform="translate(-384.22 -269.317)"/><path class="b" d="M463.843,293.229a3.853,3.853,0,0,0-3.77-3.7H417.146a3.615,3.615,0,0,0-3.494,3.7v57.235a3.69,3.69,0,0,0,3.494,3.784h35.772l10.925-11.832Z" transform="translate(-382.624 -267.735)"/><path class="a" d="M440.7,329.181v8.5L451.514,326h-6.855C442.682,326,440.7,327.205,440.7,329.181Z" transform="translate(-370.567 -251.484)"/><path class="c" d="M449.566,298.781a.494.494,0,0,1-.539.441H421a.494.494,0,0,1-.539-.441h0a.5.5,0,0,1,.539-.44h28.03a.5.5,0,0,1,.539.44Zm0,4.4a.5.5,0,0,0-.539-.44H421a.5.5,0,0,0-.539.44h0a.494.494,0,0,0,.539.44h28.03a.494.494,0,0,0,.539-.44Zm0,4.4a.5.5,0,0,0-.539-.44H421a.5.5,0,0,0-.539.44h0a.494.494,0,0,0,.539.44h28.03a.494.494,0,0,0,.539-.44Zm0,4.4a.5.5,0,0,0-.539-.44H421a.5.5,0,0,0-.539.44h0a.494.494,0,0,0,.539.44h28.03a.494.494,0,0,0,.539-.44Zm0,4.4a.5.5,0,0,0-.539-.44H421a.5.5,0,0,0-.539.44h0a.494.494,0,0,0,.539.44h28.03a.494.494,0,0,0,.539-.44Zm0,4.843a.5.5,0,0,0-.539-.44H421a.5.5,0,0,0-.539.44h0a.494.494,0,0,0,.539.44h28.03a.494.494,0,0,0,.539-.44Zm0,4.4a.5.5,0,0,0-.539-.44H421a.5.5,0,0,0-.539.44h0a.494.494,0,0,0,.539.44h28.03a.494.494,0,0,0,.539-.44Zm0,4.4a.494.494,0,0,0-.539-.439H421a.494.494,0,0,0-.539.439h0a.494.494,0,0,0,.539.44h28.03a.494.494,0,0,0,.539-.44Zm-3.334,8.807a.4.4,0,0,0-.345-.44H427.957a.4.4,0,0,0-.345.44h0a.4.4,0,0,0,.345.439h17.931a.4.4,0,0,0,.345-.439Z" transform="translate(-379.562 -263.783)"/><g transform="translate(64.074 21.306)"><rect class="d" width="44.395" height="16.032" transform="translate(0 37.47) rotate(-57.566)"/><path class="e" d="M450.13,323.614l-13.53-8.6.321,7.506,6.278,3.991Z" transform="translate(-436.6 -277.547)"/><path class="f" d="M443.1,324.188l-6.278-3.99.274,6.5Z" transform="translate(-436.5 -275.222)"/></g></g></svg>