<svg xmlns="http://www.w3.org/2000/svg" width="61.628" height="66.474" viewBox="0 0 61.628 66.474"><defs><style>.a{fill:#9c0;}.b{fill:#f1f1f1;}.c{fill:#333f48;}.d{fill:#ffd500;}</style></defs><g transform="translate(-22.883 -18.256)"><path class="a" d="M566.992,290.466h-52.5a1.789,1.789,0,0,0-1.777,1.788v9.065a1.789,1.789,0,0,0,1.777,1.789H572.57a1.787,1.787,0,0,0,1.775-1.789v-9.065a1.787,1.787,0,0,0-1.775-1.788Z" transform="translate(-489.834 -267.637)"/><path class="b" d="M523.624,299.192h-9.13a1.788,1.788,0,0,0-1.777,1.788v45.841a1.789,1.789,0,0,0,1.777,1.789H572.57a1.788,1.788,0,0,0,1.775-1.789V300.98a1.787,1.787,0,0,0-1.775-1.788H523.624Z" transform="translate(-489.834 -263.88)"/><rect class="c" width="8.045" height="9.193" rx="1.235" transform="translate(31.939 18.256)"/><rect class="c" width="8.045" height="9.193" rx="1.235" transform="translate(67.413 18.256)"/><rect class="d" width="10.355" height="10.353" transform="translate(28.191 41.362)"/><rect class="d" width="10.354" height="10.353" transform="translate(41.513 41.362)"/><rect class="d" width="10.354" height="10.353" transform="translate(54.834 41.362)"/><rect class="d" width="10.355" height="10.354" transform="translate(28.191 54.725)"/><rect class="d" width="10.354" height="10.354" transform="translate(41.513 54.725)"/><rect class="a" width="10.354" height="10.354" transform="translate(54.834 54.725)"/><rect class="d" width="10.354" height="10.353" transform="translate(68.524 41.362)"/><rect class="d" width="10.354" height="10.354" transform="translate(68.524 54.725)"/><rect class="d" width="10.354" height="10.353" transform="translate(28.355 68.067)"/><rect class="d" width="10.354" height="10.353" transform="translate(41.677 68.067)"/><rect class="d" width="10.354" height="10.353" transform="translate(54.998 68.067)"/><rect class="d" width="10.354" height="10.353" transform="translate(68.688 68.067)"/></g></svg>