<svg xmlns="http://www.w3.org/2000/svg" width="74.425" height="82.345" viewBox="0 0 74.425 82.345"><defs><style>.a{fill:#65c4db;}.b{fill:#ea9600;}.c{fill:#fff;}.d{fill:#e5e5e5;}.e{fill:#ffd500;}.f{fill:#9c0;}.g{fill:#cbcbcb;}.h{fill:none;stroke:#fff;stroke-linecap:round;stroke-linejoin:round;stroke-width:2px;}</style></defs><g transform="translate(-22.895 -11.447)"><rect class="a" width="61.208" height="77.929" rx="2.469" transform="translate(22.895 15.862)"/><path class="b" d="M437.5,95.627c0,1.23-1.609,2.421-3.577,2.421h-6.261c-1.967,0-3.577-1.191-3.577-2.421s1.61-2.422,3.577-2.422h6.261C435.895,93.205,437.5,94.4,437.5,95.627Z" transform="translate(-377.043 -81.758)"/><path class="c" d="M460.972,104.257a3.314,3.314,0,0,0-3.384-3.454H414.66a3.358,3.358,0,0,0-3.439,3.454v57.235a3.474,3.474,0,0,0,3.439,3.591h35.772l10.54-11.639Z" transform="translate(-382.813 -78.572)"/><path class="d" d="M438.268,140.209v8.5l10.76-11.433h-6.855C440.2,137.272,438.268,138.234,438.268,140.209Z" transform="translate(-370.766 -62.32)"/><rect class="e" width="26.857" height="9.686" rx="2.469" transform="translate(39.853 14.089)"/><rect class="f" width="6.164" height="5.283" rx="0.617" transform="translate(32.881 31.129)"/><rect class="f" width="6.164" height="5.283" rx="0.617" transform="translate(32.881 41.651)"/><rect class="f" width="6.164" height="5.283" rx="0.617" transform="translate(32.881 52.612)"/><rect class="f" width="6.164" height="5.283" rx="0.617" transform="translate(32.881 63.134)"/><rect class="f" width="6.164" height="5.283" rx="0.617" transform="translate(32.881 74.095)"/><path class="g" d="M445.16,107.321a.439.439,0,0,1-.439.44H421.386a.44.44,0,0,1-.44-.44h0a.44.44,0,0,1,.44-.44h23.335a.439.439,0,0,1,.439.44Zm0,3.522a.439.439,0,0,0-.439-.44H421.386a.44.44,0,0,0-.44.44h0a.44.44,0,0,0,.44.44h23.335a.439.439,0,0,0,.439-.44Zm0,7.926a.439.439,0,0,0-.439-.44H421.386a.44.44,0,0,0-.44.44h0a.44.44,0,0,0,.44.439h23.335a.439.439,0,0,0,.439-.439Zm0,3.962a.439.439,0,0,0-.439-.44H421.386a.44.44,0,0,0-.44.44h0a.44.44,0,0,0,.44.44h23.335a.439.439,0,0,0,.439-.44Zm0,7.044a.439.439,0,0,0-.439-.44H421.386a.44.44,0,0,0-.44.44h0a.44.44,0,0,0,.44.44h23.335a.439.439,0,0,0,.439-.44Zm0,3.522a.439.439,0,0,0-.439-.439H421.386a.44.44,0,0,0-.44.439h0a.44.44,0,0,0,.44.44h23.335a.439.439,0,0,0,.439-.44Zm0,7.045a.439.439,0,0,0-.439-.44H421.386a.44.44,0,0,0-.44.44h0a.44.44,0,0,0,.44.44h23.335a.439.439,0,0,0,.439-.44Zm0,3.522a.439.439,0,0,0-.439-.44H421.386a.44.44,0,0,0-.44.44h0a.44.44,0,0,0,.44.44h23.335a.439.439,0,0,0,.439-.44Zm0,7.486a.439.439,0,0,0-.439-.44H421.386a.44.44,0,0,0-.44.44h0a.44.44,0,0,0,.44.439h23.335a.439.439,0,0,0,.439-.439Zm0,3.522a.439.439,0,0,0-.439-.44H421.386a.44.44,0,0,0-.44.44h0a.44.44,0,0,0,.44.44h23.335a.439.439,0,0,0,.439-.44Z" transform="translate(-378.458 -75.848)"/><ellipse class="f" cx="16.074" cy="16.074" rx="16.074" ry="16.074" transform="translate(55.316 40.3) rotate(-22.5)"/><path class="h" d="M1700.512,2262.129l5.914,5.914,12.792-12.792" transform="translate(-1633.453 -2211.623)"/></g></svg>