<?xml version="1.0" encoding="utf-8"?>
<!-- Generator: Adobe Illustrator 25.0.0, SVG Export Plug-In . SVG Version: 6.00 Build 0)  -->
<svg version="1.1" id="Capa_1" xmlns="http://www.w3.org/2000/svg" xmlns:xlink="http://www.w3.org/1999/xlink" x="0px" y="0px"
	 viewBox="0 0 468.3 468.3" style="enable-background:new 0 0 468.3 468.3;" xml:space="preserve">
<style type="text/css">
	.st0{fill:#E1E6E9;}
	.st1{fill:#EBF0F3;}
	.st2{fill:#64798A;}
	.st3{fill:#D5D6DB;}
</style>
<path class="st0" d="M351,95.9v353.7c0,10.3-8.4,18.7-18.7,18.7H20.1c-10.3,0-18.7-8.4-18.7-18.7V18.8C1.3,8.4,9.7,0,20.1,0h235.1
	l35.2,35.2L351,95.9z"/>
<polygon class="st1" points="255.1,95.8 351,95.8 255.1,0 "/>
<path class="st2" d="M220.1,231.3h28.4c5.6,0,8.3-6.7,4.4-10.7l-72.4-72.4c-2.4-2.4-6.4-2.4-8.8,0l-72.4,72.4
	c-3.9,3.9-1.1,10.7,4.4,10.7h28.4c3.4,0,6.2,2.8,6.2,6.2v72c0,3.4,2.8,6.2,6.2,6.2h62.9c3.4,0,6.2-2.8,6.2-6.2v-72
	C213.9,234.1,216.7,231.3,220.1,231.3z"/>
<path class="st3" d="M272,294.7v51.5c0,3.4-2.8,6.2-6.2,6.2H86.5c-3.4,0-6.2-2.8-6.2-6.2v-51.5c0-5.2-4.2-9.4-9.4-9.4l0,0
	c-5.2,0-9.4,4.2-9.4,9.4v70.2c0,3.4,2.8,6.2,6.2,6.2h216.7c3.4,0,6.2-2.8,6.2-6.2v-70.2c0-5.2-4.2-9.4-9.4-9.4h0
	C276.2,285.3,272,289.5,272,294.7z"/>
</svg>
